<?xml version="1.0" standalone="no"?>
<!DOCTYPE svg PUBLIC "-//W3C//DTD SVG 20010904//EN"
 "http://www.w3.org/TR/2001/REC-SVG-20010904/DTD/svg10.dtd">
<svg version="1.0" xmlns="http://www.w3.org/2000/svg"
 width="530.000000pt" height="530.000000pt" viewBox="0 0 530.000000 530.000000"
 preserveAspectRatio="xMidYMid meet">
<metadata>
Created by potrace 1.11, written by Peter Selinger 2001-2013
</metadata>
<g transform="translate(0.000000,530.000000) scale(0.100000,-0.100000)"
fill="#000000" stroke="none">
<path d="M2563 3897 c1 -19 5 -33 9 -31 3 2 8 -1 10 -8 3 -7 7 -8 9 -3 3 6 -3
25 -12 44 l-18 34 2 -36z"/>
<path d="M2917 3856 c4 -22 3 -27 -7 -21 -9 6 -11 -1 -8 -29 5 -42 -3 -45 -30
-11 -22 28 -45 31 -92 11 -21 -9 -28 -15 -19 -19 8 -3 -1 -6 -18 -6 -46 -1
-41 -21 5 -21 20 0 44 -5 52 -10 12 -8 11 -10 -5 -8 -11 0 -31 0 -44 0 -20 -2
-22 -4 -11 -17 7 -9 19 -14 27 -11 8 3 11 1 8 -4 -4 -6 7 -10 24 -10 27 0 30
-3 28 -30 -1 -19 -7 -28 -14 -26 -6 3 -14 -3 -16 -12 -4 -14 -6 -14 -12 4 -5
15 -13 20 -26 17 -10 -3 -19 -9 -19 -15 0 -5 -6 -3 -14 4 -11 11 -9 15 13 24
25 10 24 11 -24 18 -67 10 -93 25 -45 27 28 1 24 3 -22 11 -32 6 -58 14 -58
19 0 5 -4 9 -10 9 -18 0 -10 -17 13 -28 22 -11 22 -11 -5 -11 -31 -1 -40 -11
-27 -31 7 -13 9 -12 9 3 0 21 7 22 27 2 8 -8 19 -12 25 -9 6 4 8 -5 6 -22 -2
-16 1 -30 5 -31 9 -2 47 -43 47 -51 0 -3 -9 3 -20 13 -19 17 -20 17 -20 -1 0
-17 -2 -17 -19 5 l-18 23 -1 -35 c-1 -30 3 -37 29 -47 16 -7 27 -15 25 -18 -7
-6 -97 18 -113 31 -9 6 -13 6 -13 -1 0 -5 17 -17 38 -25 20 -9 31 -16 25 -16
-17 -1 -93 30 -93 38 0 3 -14 20 -30 38 -17 18 -30 39 -30 47 0 9 -4 16 -10
16 -9 0 -14 -13 -12 -31 1 -4 -10 -10 -23 -13 -24 -6 -24 -8 -10 -30 15 -23
15 -23 -12 -20 -16 2 -20 1 -10 -2 25 -8 11 -24 -21 -24 -15 0 -40 -11 -55
-24 -16 -14 -35 -22 -43 -19 -12 4 -12 7 2 18 10 7 13 14 7 18 -6 4 -23 -4
-37 -17 -30 -25 -76 -25 -76 0 0 8 -3 14 -7 14 -5 0 -17 7 -27 15 -19 15 -19
15 5 42 22 26 22 26 -9 -2 l-33 -30 23 -19 c25 -20 26 -25 7 -37 -15 -9 -17
-7 51 -27 30 -8 31 -10 10 -11 -30 -2 -65 -20 -40 -22 10 0 8 -3 -5 -9 -27
-12 -37 -12 -31 -1 4 5 -3 7 -14 4 -10 -3 -18 -10 -17 -16 4 -22 -30 -18 -36
5 -6 20 14 48 21 29 1 -4 16 -5 33 -3 22 3 27 7 18 13 -8 5 -21 6 -30 3 -10
-2 -19 2 -23 11 -3 9 -2 13 4 10 6 -3 10 1 10 9 0 9 7 16 15 16 8 0 15 5 15
10 0 16 -19 12 -49 -9 -24 -18 -27 -25 -25 -71 2 -44 0 -49 -13 -39 -8 7 -12
21 -10 31 6 23 -8 32 -30 20 -22 -13 -27 -46 -6 -38 9 4 17 -1 20 -14 3 -11
12 -20 20 -20 8 0 11 -4 8 -10 -3 -5 -1 -10 4 -10 6 0 11 5 11 12 0 6 2 9 5 6
7 -7 -5 -38 -15 -38 -5 0 -16 7 -24 16 -19 18 -35 11 -33 -14 1 -15 7 -17 36
-12 24 4 44 1 59 -8 14 -9 22 -10 22 -3 0 18 18 13 22 -6 3 -15 4 -15 21 1 16
17 17 16 18 -6 1 -17 3 -18 6 -5 2 9 9 17 15 17 6 0 8 -11 4 -27 -14 -54 -17
-221 -6 -228 7 -4 14 2 17 14 4 17 8 19 19 10 9 -8 14 -8 14 -1 0 6 10 14 23
18 34 10 51 44 23 44 -8 0 -18 5 -22 11 -5 8 1 10 20 7 27 -5 27 -5 8 16 -11
11 -23 32 -26 46 -6 23 -6 23 7 7 13 -15 16 -15 27 -2 7 8 19 15 26 15 8 0 13
5 11 11 -1 6 4 14 11 16 7 3 12 -5 12 -21 0 -14 4 -26 8 -26 5 0 14 -12 21
-26 15 -33 0 -54 -32 -47 -18 5 -20 3 -9 -8 15 -17 16 -33 0 -23 -8 5 -9 2 -5
-10 4 -10 1 -19 -8 -22 -8 -4 -15 -15 -15 -25 0 -22 -11 -24 -28 -7 -9 9 -12
7 -12 -9 0 -14 -8 -23 -25 -27 -14 -4 -25 -13 -25 -21 0 -8 -7 -15 -15 -15
-10 0 -15 10 -15 30 0 31 -19 43 -21 13 0 -15 -2 -15 -9 2 l-9 20 0 -20 c-2
-31 -21 3 -21 37 0 22 -7 31 -32 42 l-33 14 28 1 c17 1 27 7 27 16 0 8 6 15
14 15 9 0 16 17 21 50 7 50 1 75 -16 64 -16 -9 -69 7 -69 21 0 8 -6 12 -14 9
-8 -3 -24 -1 -35 5 -17 9 -20 9 -15 -3 5 -12 -1 -14 -30 -11 -33 4 -36 3 -36
-20 0 -18 -4 -23 -15 -19 -9 4 -15 0 -15 -9 0 -9 -9 -19 -20 -22 -11 -3 -20
-11 -20 -18 0 -8 -3 -8 -12 1 -15 15 -37 -13 -38 -49 0 -14 -2 -28 -5 -31 -9
-8 -64 4 -68 16 -2 6 -2 2 0 -9 16 -71 16 -78 -2 -71 -14 5 -16 2 -11 -16 14
-45 12 -53 -13 -52 -23 1 -23 0 10 -31 28 -25 32 -34 22 -43 -7 -7 -22 -12
-35 -12 -19 0 -20 -2 -8 -10 8 -5 24 -10 35 -10 14 0 21 -7 22 -20 1 -11 -4
-20 -13 -20 -8 0 -14 -9 -14 -20 0 -11 -7 -20 -15 -20 -8 0 -15 -4 -15 -10 0
-5 -10 -11 -22 -11 -17 -1 -19 -2 -6 -6 16 -4 17 -7 2 -34 -16 -32 -22 -130
-10 -166 10 -32 30 -29 22 3 l-7 26 25 -26 c17 -19 26 -23 29 -14 3 7 6 4 6
-8 1 -27 -9 -36 -26 -22 -29 24 -23 -2 11 -47 40 -52 43 -60 50 -166 l5 -75
-32 3 -32 4 24 -14 c14 -8 31 -13 37 -10 7 3 23 -11 36 -31 14 -22 34 -38 52
-42 28 -6 29 -7 12 -20 -11 -8 -31 -11 -50 -7 l-31 5 23 -17 c12 -9 20 -20 17
-25 -3 -4 2 -13 10 -20 8 -7 15 -21 15 -31 0 -20 54 -36 89 -26 14 3 18 1 14
-10 -4 -9 3 -23 17 -33 l23 -18 -31 -7 c-17 -3 -37 -3 -44 1 -10 6 -11 4 0 -7
6 -7 27 -13 46 -13 19 0 33 -3 30 -7 -2 -4 1 -9 7 -11 7 -2 -8 -10 -32 -17
-24 -8 -38 -16 -31 -18 6 -3 10 -8 7 -13 -8 -13 45 -42 69 -36 32 8 46 -6 50
-50 3 -30 9 -42 30 -52 14 -7 26 -21 26 -31 0 -34 62 -70 86 -50 9 7 11 29 7
80 -3 38 -3 69 1 69 4 0 46 -40 94 -89 86 -88 197 -161 243 -161 10 0 19 -6
19 -14 0 -10 15 -13 61 -12 33 1 62 -2 65 -6 3 -5 10 -6 15 -2 6 3 19 -3 30
-15 11 -12 24 -21 28 -21 21 0 19 -66 -3 -120 -3 -8 -1 -22 4 -30 9 -13 11
-13 21 0 8 12 9 11 5 -5 -18 -68 -18 -77 -5 -85 10 -7 10 -12 1 -23 -7 -8 -10
-27 -6 -44 6 -30 5 -31 -47 -44 -31 -7 -111 -13 -189 -13 -145 0 -221 12 -415
66 -106 29 -261 67 -278 68 -5 0 -5 -5 -1 -11 4 -8 0 -7 -15 1 -12 6 -19 15
-16 19 2 5 -6 16 -19 25 -28 18 -79 29 -71 15 4 -5 15 -9 25 -9 10 0 22 -5 25
-10 6 -10 -13 -8 -67 7 -13 3 -18 -1 -18 -14 0 -22 90 -93 118 -93 21 0 62
-27 62 -42 0 -6 -6 -6 -15 2 -13 11 -14 10 -9 -6 12 -33 16 -37 25 -23 6 10 9
8 9 -8 0 -13 -3 -23 -7 -23 -5 0 -7 -55 -6 -122 1 -68 -1 -115 -4 -105 -2 9
-9 17 -14 17 -5 0 -7 -29 -4 -72 6 -84 12 -112 31 -155 19 -42 30 -98 18 -90
-6 3 -16 2 -23 -2 -10 -7 -9 -13 5 -29 10 -12 21 -17 24 -12 7 11 50 1 50 -12
0 -5 -9 -6 -20 -3 -21 7 -29 -10 -7 -18 9 -3 9 -8 1 -17 -8 -8 -14 -9 -18 -1
-12 19 -29 12 -23 -9 4 -14 0 -20 -11 -21 -11 0 -12 -2 -4 -6 6 -2 9 -10 5
-16 -18 -29 -13 -47 15 -48 17 -1 20 -3 9 -6 -14 -4 -17 -13 -14 -48 3 -41 2
-44 -26 -48 -22 -3 -31 1 -38 17 -13 33 10 -173 28 -236 4 -17 77 -18 1353
-18 l1349 0 6 38 c14 91 18 97 57 94 31 -2 37 1 40 20 l3 23 26 -28 c26 -26
59 -37 59 -18 0 5 -4 21 -9 34 -9 22 -16 24 -75 26 -63 2 -66 0 -66 -21 -1
-22 -1 -22 -14 -5 -12 16 -22 62 -31 142 -2 11 -12 52 -23 90 -11 39 -23 95
-27 125 -4 30 -9 68 -11 83 -3 26 -55 131 -73 150 -9 9 -27 -10 -34 -38 -3
-15 -5 -13 -6 8 -1 37 -18 67 -36 67 -8 0 -15 7 -15 16 0 28 -25 -7 -39 -56
-15 -50 -80 -182 -81 -163 0 7 9 37 21 68 19 50 24 81 20 128 -1 15 -5 16 -21
7 -11 -6 -20 -8 -20 -4 0 3 -6 1 -14 -5 -11 -9 -15 -7 -19 9 -3 11 -11 20 -19
20 -13 0 -55 -58 -51 -71 1 -4 -8 -6 -20 -6 -20 -1 -22 4 -19 33 3 26 0 34
-12 34 -9 0 -16 4 -16 8 0 4 -12 9 -27 10 -15 1 -31 9 -36 17 -13 24 -23 18
-51 -27 -28 -47 -33 -35 -11 27 18 49 19 72 3 79 -9 3 -7 9 6 20 11 9 17 19
13 22 -7 7 -44 -17 -46 -31 -1 -5 -16 -15 -34 -22 -17 -6 -24 -12 -14 -12 16
-1 16 -2 0 -19 -12 -12 -21 -14 -25 -8 -5 7 -8 6 -8 -3 0 -8 -3 -11 -6 -8 -4
4 -1 14 6 22 9 11 10 19 3 26 -7 7 -4 18 12 34 29 32 28 53 -2 47 -12 -2 -23
-7 -23 -11 0 -4 -9 -7 -21 -7 -17 0 -20 5 -17 28 3 16 -1 29 -9 32 -7 3 -13
12 -13 21 0 8 -3 15 -7 15 -13 0 -47 81 -45 106 1 15 -4 24 -13 24 -8 0 -19 9
-25 20 -6 11 -22 31 -35 44 -14 14 -25 30 -25 35 0 11 72 -18 78 -32 2 -4 8
-4 14 -1 5 3 20 -4 33 -16 13 -13 29 -19 36 -15 12 8 -114 95 -138 95 -7 0
-28 13 -46 30 -40 35 -92 58 -212 95 -123 37 -195 72 -195 94 0 23 31 51 56
51 25 0 44 18 44 41 0 10 6 24 13 31 7 7 17 22 21 33 8 19 8 19 17 -2 4 -13
13 -23 19 -23 5 0 10 -12 10 -27 1 -26 2 -27 14 -10 13 16 15 15 34 -14 12
-20 22 -27 26 -20 12 19 16 71 6 71 -6 0 -10 -9 -10 -20 0 -11 -5 -20 -11 -20
-7 0 -9 9 -5 23 3 12 6 28 6 35 0 7 5 10 10 7 17 -11 11 6 -14 36 -13 15 -27
25 -30 22 -3 -4 -6 -1 -6 6 0 8 -7 10 -22 6 -17 -6 -20 -4 -15 10 4 9 7 21 7
27 0 6 6 6 15 -2 11 -10 18 -9 30 3 8 9 15 20 15 26 0 6 7 11 15 11 8 0 15 7
15 16 0 13 -3 14 -14 5 -31 -26 -80 26 -78 81 0 18 -3 26 -10 22 -12 -8 -2 85
11 99 11 11 41 -3 41 -19 0 -8 -6 -11 -15 -8 -8 4 -15 1 -15 -6 0 -7 8 -10 19
-7 13 3 21 -1 24 -12 4 -13 5 -13 6 -1 0 9 -8 33 -18 53 -24 47 -12 55 54 38
24 -6 50 -11 57 -11 20 1 -23 30 -43 30 -10 0 -20 4 -23 9 -10 15 5 40 20 34
24 -9 113 58 151 114 11 16 13 36 8 77 -4 31 -11 53 -16 50 -5 -3 -9 4 -9 15
0 12 5 21 12 21 17 0 3 11 -19 14 -31 5 -14 21 20 18 49 -3 104 49 114 108 11
62 5 149 -8 130 -8 -11 -9 -7 -6 17 3 26 1 30 -10 22 -7 -7 -13 -24 -13 -39 0
-28 -24 -48 -35 -29 -11 16 7 119 22 135 13 12 11 14 -11 14 -24 0 -24 2 19
45 28 27 45 54 46 70 1 14 2 31 3 38 1 6 -4 29 -11 51 -7 21 -11 42 -8 46 3 4
-1 13 -9 19 -7 6 -16 25 -20 41 -6 34 -26 41 -26 9 0 -20 0 -20 -31 1 -16 12
-33 19 -36 16 -4 -3 -18 1 -32 11 -18 11 -13 2 17 -30 51 -57 56 -84 6 -36
l-37 34 32 -44 c24 -35 31 -54 31 -92 0 -44 -3 -50 -30 -64 -16 -8 -43 -15
-60 -15 -31 0 -38 -8 -19 -27 7 -7 5 -12 -9 -15 -16 -5 -21 1 -26 31 -8 51 -7
63 4 56 6 -3 10 3 10 13 0 22 -71 122 -119 166 -34 32 -39 46 -17 46 20 0 56
84 55 127 -1 21 -3 30 -6 21 -7 -27 -23 -21 -23 8 0 17 4 23 12 18 8 -5 9 -2
3 12 -4 10 -10 37 -13 59 -2 22 -8 44 -13 50 -5 5 -9 17 -9 27 0 10 -15 37
-32 61 -18 24 -40 54 -48 66 -8 11 -19 21 -24 21 -5 0 -18 7 -28 17 -17 15
-18 15 -18 -1 0 -10 -5 -14 -11 -10 -9 5 -10 -1 -5 -20 6 -24 5 -25 -13 -14
-15 9 -24 8 -48 -6 l-28 -18 27 26 c15 14 33 26 40 27 7 0 4 4 -7 9 -18 8 -18
9 -2 9 10 1 15 6 12 11 -4 6 -11 8 -16 5 -5 -4 -9 2 -10 12 0 10 -3 13 -6 6
-6 -16 -23 -17 -23 -3 0 6 -10 21 -21 33 -12 12 -19 16 -15 10 4 -7 4 -18 0
-24 -4 -6 -14 5 -25 27 -10 22 -16 29 -13 17 3 -13 1 -23 -5 -23 -14 0 -31 33
-31 59 0 12 -4 21 -8 21 -5 0 -14 10 -20 23 -11 20 -11 20 -5 -7z m-23 -108
c33 -47 4 -53 -32 -7 -23 28 -23 29 -3 29 11 0 27 -10 35 -22z m119 -65 c-7
-2 -21 -2 -30 0 -10 3 -4 5 12 5 17 0 24 -2 18 -5z m-113 -52 c0 -5 11 -12 25
-15 14 -4 25 -11 25 -16 0 -5 -6 -7 -14 -4 -11 4 -13 0 -9 -15 3 -12 1 -21 -6
-21 -6 0 -11 6 -12 13 0 6 -4 2 -9 -10 -5 -13 -16 -23 -23 -23 -18 0 -68 46
-60 54 4 3 0 6 -8 7 -14 0 24 19 49 25 8 1 16 5 20 8 8 9 22 7 22 -3z m-466
-69 c-8 -2 -23 0 -32 4 -14 6 -13 8 8 14 14 3 28 2 32 -4 4 -6 1 -13 -8 -14z
m606 8 c0 -5 -5 -10 -11 -10 -5 0 -7 5 -4 10 3 6 8 10 11 10 2 0 4 -4 4 -10z
m-136 -51 c-9 -10 -22 -19 -28 -19 -6 0 -3 7 7 14 9 7 17 19 17 25 0 7 5 9 11
6 7 -5 4 -14 -7 -26z m-510 -40 c9 14 46 14 46 0 0 -6 -6 -9 -14 -6 -8 3 -19
0 -24 -6 -8 -9 6 -11 61 -7 54 4 76 2 86 -8 19 -19 -1 -31 -54 -33 -49 -2 -44
-2 -78 6 -23 6 -27 4 -27 -14 0 -12 -6 -21 -14 -21 -9 0 -12 7 -9 20 5 17 0
20 -28 21 -28 0 -31 2 -14 9 11 5 16 9 10 10 -5 0 1 9 15 20 16 12 27 15 31 8
4 -7 9 -7 13 1z m-74 -3 c0 -3 -4 -8 -10 -11 -5 -3 -10 -1 -10 4 0 6 5 11 10
11 6 0 10 -2 10 -4z m377 -2 c-3 -3 -12 -4 -19 -1 -8 3 -5 6 6 6 11 1 17 -2
13 -5z m238 -8 c13 -12 8 -16 -35 -26 -28 -7 -50 -18 -50 -25 0 -12 -50 -25
-102 -25 -16 0 -28 -5 -28 -11 0 -5 4 -8 8 -5 4 2 13 -4 20 -15 10 -16 9 -19
-4 -19 -9 0 -12 5 -8 13 5 9 4 9 -6 0 -16 -15 -13 -18 18 -27 12 -4 22 -3 22
2 0 6 7 12 15 16 12 4 13 2 6 -13 -6 -10 -7 -21 -4 -25 3 -3 -2 -7 -13 -7 -10
-1 -1 -5 21 -8 22 -4 48 -3 58 2 18 8 18 7 1 -19 l-18 -27 23 12 c12 7 25 10
29 7 7 -8 -30 -36 -40 -30 -5 3 -18 -2 -30 -11 -23 -16 -23 -16 6 -9 21 5 27
4 22 -5 -4 -6 -22 -11 -39 -11 -24 0 -28 -3 -17 -10 12 -7 8 -10 -15 -11 -26
0 -27 -2 -10 -9 18 -8 18 -9 2 -9 -10 -1 -15 -5 -12 -11 10 -16 -11 -12 -25 5
-7 8 -10 21 -7 29 4 10 -4 17 -25 21 -22 5 -27 10 -19 18 29 29 -4 37 -44 11
-24 -16 -25 -15 -25 5 0 11 -4 21 -10 21 -16 0 -12 18 10 40 16 16 20 17 20 5
0 -8 5 -15 10 -15 6 0 9 3 8 8 -5 16 46 91 70 102 21 9 23 13 11 21 -10 6 -7
9 14 9 28 0 37 -14 15 -23 -7 -3 -4 -6 8 -6 11 -1 29 8 39 19 13 14 14 20 5
20 -7 0 -3 9 10 20 27 24 94 27 115 6z m-665 -26 c-19 -13 -30 -13 -30 0 0 6
10 10 23 10 18 0 19 -2 7 -10z m-40 -10 c0 -5 -7 -10 -15 -10 -8 0 -15 -4 -15
-10 0 -5 5 -10 10 -10 6 0 1 -9 -11 -21 -13 -13 -27 -18 -39 -14 -12 4 -25 -1
-36 -13 -10 -12 -24 -18 -36 -14 -18 4 -18 6 4 26 12 11 23 19 23 17 0 -2 23
10 50 27 54 34 65 38 65 22z m480 -10 c0 -5 -4 -10 -10 -10 -5 0 -10 5 -10 10
0 6 5 10 10 10 6 0 10 -4 10 -10z m262 -15 c-2 -14 -8 -25 -13 -25 -5 0 -9 -7
-9 -15 0 -8 -6 -15 -13 -15 -7 0 -20 -9 -30 -20 -9 -11 -22 -20 -29 -20 -9 1
-8 4 2 13 9 7 31 33 50 60 37 53 50 59 42 22z m-718 0 c-4 -8 -8 -15 -10 -15
-2 0 -4 7 -4 15 0 8 4 15 10 15 5 0 7 -7 4 -15z m-190 -49 c-5 -14 -9 -15 -15
-5 -5 8 -3 17 4 21 15 9 19 4 11 -16z m166 9 c0 -8 -4 -15 -10 -15 -5 0 -7 7
-4 15 4 8 8 15 10 15 2 0 4 -7 4 -15z m560 5 c-20 -13 -33 -13 -25 0 3 6 14
10 23 10 15 0 15 -2 2 -10z m-388 -22 c-23 -26 -82 -63 -82 -53 0 22 37 65 59
68 14 2 30 5 35 6 5 0 0 -9 -12 -21z m435 16 c-3 -3 -12 -4 -19 -1 -8 3 -5 6
6 6 11 1 17 -2 13 -5z m-557 -14 c0 -5 -7 -10 -15 -10 -8 0 -15 -5 -15 -11 0
-7 9 -9 24 -5 23 6 23 4 13 -19 -7 -14 -18 -23 -25 -20 -7 3 -10 0 -7 -6 4 -6
0 -9 -10 -7 -10 2 -20 -3 -23 -11 -2 -8 0 -11 6 -8 5 4 15 0 21 -7 8 -9 8 -17
2 -20 -5 -3 -11 -1 -13 6 -3 7 -18 13 -34 14 -51 3 -55 4 -49 14 3 5 22 17 41
26 20 10 38 24 41 33 12 34 43 56 43 31z m325 -40 c3 -5 1 -10 -4 -10 -6 0
-11 5 -11 10 0 6 2 10 4 10 3 0 8 -4 11 -10z m700 -35 c0 -16 -6 -30 -12 -32
-7 -3 -13 3 -13 12 0 11 -5 15 -15 11 -20 -7 -19 3 2 26 22 25 38 18 38 -17z
m-735 11 c0 -3 -4 -8 -10 -11 -5 -3 -10 -1 -10 4 0 6 5 11 10 11 6 0 10 -2 10
-4z m24 -60 c-3 -8 -1 -17 5 -20 14 -9 2 -36 -15 -36 -8 0 -14 -3 -14 -7 0 -5
-11 -9 -25 -9 -18 -2 -25 3 -25 17 0 21 25 26 33 7 3 -8 6 -6 6 5 1 9 8 17 17
17 13 0 14 3 5 13 -11 14 -6 27 10 27 5 0 6 -6 3 -14z m-422 -3 c-19 -4 -21
-7 -11 -19 10 -12 14 -12 21 -2 7 9 8 6 5 -9 -3 -13 -2 -25 2 -28 10 -5 1 -64
-10 -71 -5 -3 -9 2 -9 10 0 8 -6 21 -14 28 -7 8 -12 31 -11 53 3 49 0 45 28
44 l22 -2 -23 -4z m838 -71 c0 -5 -11 -19 -25 -32 -29 -27 -33 -19 -7 15 17
25 32 32 32 17z m-1067 -9 c-7 -2 -21 -2 -30 0 -10 3 -4 5 12 5 17 0 24 -2 18
-5z m287 -34 c0 -14 -17 -10 -23 5 -4 10 -1 13 9 9 7 -3 14 -9 14 -14z m-217
4 c-7 -2 -19 -2 -25 0 -7 3 -2 5 12 5 14 0 19 -2 13 -5z m64 -80 c-3 -10 -5
-2 -5 17 0 19 2 27 5 18 2 -10 2 -26 0 -35z m897 35 c-3 -4 -9 -8 -15 -8 -5 0
-9 4 -9 8 0 5 7 9 15 9 8 0 12 -4 9 -9z m-134 -68 c0 -5 -17 -9 -37 -9 -38 1
-38 1 -8 9 43 11 45 11 45 0z m-955 -30 c-3 -5 -11 -10 -16 -10 -6 0 -7 5 -4
10 3 6 11 10 16 10 6 0 7 -4 4 -10z m975 -5 c11 -13 8 -16 -19 -21 -17 -4 -28
-10 -25 -15 6 -10 -19 -12 -29 -2 -7 6 38 53 52 53 5 0 14 -7 21 -15z m-577
-10 c-3 -9 -8 -14 -10 -11 -3 3 -2 9 2 15 9 16 15 13 8 -4z m-156 -32 c-3 -10
-5 -4 -5 12 0 17 2 24 5 18 2 -7 2 -21 0 -30z m223 16 c0 -5 -4 -9 -10 -9 -5
0 -10 7 -10 16 0 8 5 12 10 9 6 -3 10 -10 10 -16z m-160 -16 c0 -20 -3 -24
-11 -16 -7 7 -9 19 -6 27 10 24 17 19 17 -11z m64 -9 c-4 -41 -14 -41 -14 0 0
20 4 35 9 32 4 -3 7 -17 5 -32z m-144 -10 c0 -14 -4 -23 -9 -20 -5 3 -7 15 -4
26 7 28 13 25 13 -6z m416 -1 c4 -16 13 -37 20 -48 19 -27 18 -33 -8 -30 -13
1 -31 3 -41 4 -13 1 -16 7 -12 26 3 14 7 36 10 50 7 33 23 32 31 -2z m-374 -5
c-7 -7 -12 -8 -12 -2 0 14 12 26 19 19 2 -3 -1 -11 -7 -17z m67 -18 c1 12 4
11 12 -3 10 -18 12 -18 26 2 15 22 43 29 43 11 0 -5 -4 -10 -9 -10 -5 0 -13
-9 -16 -20 -6 -17 -13 -20 -41 -16 -19 4 -34 2 -34 -4 0 -9 15 -14 33 -11 5 1
6 -3 2 -9 -9 -14 18 -13 33 2 20 20 25 0 12 -47 -9 -32 -18 -45 -29 -44 -9 1
-24 -1 -34 -6 -29 -12 -31 1 -7 40 16 25 19 40 12 47 -7 7 -15 1 -26 -21 -19
-36 -30 -41 -21 -8 5 19 5 20 -7 6 -8 -9 -22 -18 -32 -20 -19 -4 -43 -49 -27
-49 5 0 12 10 16 23 l7 22 7 -25 c8 -26 5 -29 -51 -50 -21 -7 -28 -16 -28 -35
0 -14 -5 -25 -11 -25 -6 0 -8 9 -4 20 4 11 2 20 -4 20 -6 0 -11 -7 -11 -15 0
-8 -5 -15 -11 -15 -5 0 -7 5 -4 10 3 6 -2 10 -11 10 -13 0 -15 3 -7 11 8 8 8
20 2 36 -12 32 -5 42 26 38 17 -1 31 5 40 17 7 11 18 17 24 13 6 -3 11 1 11
11 0 14 3 15 12 6 18 -18 28 -14 28 12 0 12 5 37 11 55 9 24 14 29 24 21 10
-8 15 -6 21 12 l8 23 7 -25 c4 -14 8 -18 8 -10z m-92 -2 c-3 -8 -6 -5 -6 6 -1
11 2 17 5 13 3 -3 4 -12 1 -19z m267 -18 c-3 -72 -4 -74 -15 -63 -7 7 -8 26
-4 52 8 48 21 55 19 11z m-284 -7 c0 -10 -5 -25 -10 -33 -7 -11 -10 -7 -10 18
0 17 5 32 10 32 6 0 10 -8 10 -17z m190 3 c0 -3 -4 -8 -10 -11 -5 -3 -10 -1
-10 4 0 6 5 11 10 11 6 0 10 -2 10 -4z m-230 -41 c0 -13 -37 -23 -51 -13 -11
8 -11 9 3 4 10 -3 20 -1 23 4 6 10 25 14 25 5z m501 -12 c4 -4 4 -15 -1 -23
-8 -13 -10 -12 -10 3 0 9 -5 17 -11 17 -5 0 -7 -4 -4 -10 3 -5 -1 -10 -9 -10
-9 0 -16 5 -16 11 0 6 -9 9 -20 6 -20 -5 -26 3 -13 16 8 9 73 1 84 -10z m-631
-79 c-31 -34 -40 -40 -35 -22 9 27 69 91 73 77 2 -5 -15 -30 -38 -55z m-222
-55 c-6 -16 -13 -28 -15 -25 -8 8 6 56 17 56 5 0 5 -13 -2 -31z m1799 15 c-3
-3 -12 -4 -19 -1 -8 3 -5 6 6 6 11 1 17 -2 13 -5z m-839 -71 c8 -21 15 -59 16
-84 2 -31 10 -55 25 -70 12 -13 20 -32 17 -42 -2 -9 2 -31 11 -47 8 -17 11
-39 8 -51 -12 -37 -13 -54 -3 -66 13 -16 -16 -63 -37 -63 -8 0 -15 -5 -15 -10
0 -7 -6 -7 -20 0 -19 10 -44 4 -246 -60 -17 -6 -40 -10 -51 -10 -22 0 -43 -22
-61 -63 -18 -41 -15 -71 9 -85 24 -15 24 -79 0 -74 -8 2 -18 -3 -22 -10 -6 -9
-14 2 -28 33 -12 26 -31 50 -45 57 -23 10 -25 9 -28 -16 l-4 -27 -16 35 c-9
19 -17 28 -17 20 -1 -8 6 -28 14 -44 19 -36 19 -42 0 -26 -8 7 -15 20 -15 30
0 9 -3 20 -7 24 -5 4 -13 26 -20 49 -11 41 -11 41 -12 10 -1 -17 -5 -35 -11
-38 -5 -3 -10 4 -9 17 0 13 -6 48 -14 78 -51 185 -56 212 -50 281 3 38 10 69
14 69 5 0 9 6 9 13 0 7 6 22 14 32 12 17 16 15 48 -36 55 -84 74 -97 187 -126
56 -14 108 -22 116 -19 8 3 17 6 20 6 2 1 24 20 48 43 50 47 76 97 107 207 12
41 23 81 25 88 8 24 30 11 43 -25z m817 -14 c12 -19 -5 -23 -22 -6 -16 16 -16
17 -1 17 9 0 20 -5 23 -11z m15 -39 c0 -5 -4 -10 -10 -10 -5 0 -10 5 -10 10 0
6 5 10 10 10 6 0 10 -4 10 -10z m-1423 -52 c-3 -7 -5 -2 -5 12 0 14 2 19 5 13
2 -7 2 -19 0 -25z m1439 -173 c-9 -14 -26 -25 -39 -25 -21 0 -22 4 -19 60 l4
59 35 -34 c35 -34 35 -35 19 -60z m-236 -32 c0 -23 -4 -33 -9 -27 -9 8 -4 64
5 64 2 0 4 -17 4 -37z m230 -13 c0 -5 -12 -10 -27 -9 l-28 1 25 8 c14 4 26 8
28 9 1 1 2 -3 2 -9z m-710 -10 c0 -5 14 -10 30 -10 17 0 30 -5 30 -10 0 -7
-16 -9 -40 -6 -46 6 -63 14 -55 27 8 12 35 12 35 -1z m-786 -22 c8 -31 7 -48
-2 -48 -10 0 -32 57 -24 64 11 11 20 6 26 -16z m1221 4 c-3 -3 -11 0 -18 7 -9
10 -8 11 6 5 10 -3 15 -9 12 -12z m-1254 -88 c24 9 46 -17 56 -66 12 -54 4
-68 -38 -68 -43 0 -129 106 -129 160 0 12 5 18 10 15 6 -3 10 -1 10 5 0 6 17
-3 38 -20 21 -17 45 -28 53 -26z m1266 16 c-3 -11 -1 -20 4 -20 5 0 9 -4 9 -9
0 -12 -19 -9 -45 7 -16 9 -17 11 -4 12 9 0 19 7 23 15 8 22 19 18 13 -5z m198
6 c-32 -14 -41 -13 -30 3 3 6 18 11 33 11 l27 -1 -30 -13z m-940 -245 c73 -35
137 -51 206 -51 72 0 57 -8 -37 -20 -50 -6 -83 -16 -90 -25 -14 -19 -7 -55 12
-62 8 -3 14 -14 14 -25 0 -18 1 -18 16 -4 12 12 20 13 35 6 21 -12 22 -14 13
-47 -7 -26 -24 -31 -24 -8 0 9 -9 15 -25 15 -16 0 -25 -6 -25 -15 0 -8 -4 -15
-9 -15 -5 0 -7 9 -4 21 5 18 2 20 -28 16 -19 -3 -34 -6 -34 -7 0 -1 -15 -3
-32 -6 -33 -4 -46 12 -18 22 19 8 20 34 1 34 -19 0 -41 27 -25 32 7 2 -1 17
-20 35 -25 26 -31 39 -31 76 0 44 2 47 40 56 2 0 32 -12 65 -28z m-365 -7 c10
-26 13 -61 3 -36 -2 6 -11 12 -18 12 -7 0 -15 11 -17 25 -7 34 19 33 32 -1z
m-93 -49 c-5 -14 -77 -36 -90 -28 -7 4 -2 10 13 13 14 4 24 11 23 17 -1 6 11
10 27 9 17 -1 28 -5 27 -11z m273 -61 c0 -8 -4 -12 -10 -9 -5 3 -10 13 -10 21
0 8 5 12 10 9 6 -3 10 -13 10 -21z m1018 -6 c-7 -19 -21 -12 -25 11 -3 20 -1
22 12 11 9 -7 14 -17 13 -22z m-48 -98 c0 -5 -2 -10 -4 -10 -3 0 -8 5 -11 10
-3 6 -1 10 4 10 6 0 11 -4 11 -10z m70 -16 c0 -14 -3 -15 -17 -3 -10 7 -20 15
-22 16 -2 2 5 3 17 3 14 0 22 -6 22 -16z m-1204 -72 c-4 -3 -12 0 -19 7 -9 9
-9 14 3 21 11 7 16 5 18 -6 2 -9 1 -18 -2 -22z m1651 -678 c-3 -3 -12 -4 -19
-1 -8 3 -5 6 6 6 11 1 17 -2 13 -5z m533 -349 c-20 -59 -20 -59 -14 -15 7 52
25 100 30 85 3 -6 -5 -38 -16 -70z m87 -7 c-2 -13 -4 -5 -4 17 -1 22 1 32 4
23 2 -10 2 -28 0 -40z m-580 0 c-3 -8 -6 -5 -6 6 -1 11 2 17 5 13 3 -3 4 -12
1 -19z m50 -170 c-3 -8 -6 -5 -6 6 -1 11 2 17 5 13 3 -3 4 -12 1 -19z m-1990
-70 c-3 -8 -6 -5 -6 6 -1 11 2 17 5 13 3 -3 4 -12 1 -19z m-63 -165 c3 -10 9
-24 12 -31 3 -7 -6 -2 -20 11 -29 27 -32 37 -12 37 7 0 16 -8 20 -17z m5 -105
c1 -5 -3 -8 -9 -8 -5 0 -10 12 -9 28 0 24 1 25 9 7 5 -11 9 -23 9 -27z"/>
<path d="M2885 3600 c-3 -5 -1 -10 4 -10 6 0 11 5 11 10 0 6 -2 10 -4 10 -3 0
-8 -4 -11 -10z"/>
<path d="M2890 3460 l-25 -8 28 -1 c15 -1 27 4 27 9 0 6 -1 10 -2 9 -2 -1 -14
-5 -28 -9z"/>
<path d="M2706 3295 c-24 -36 -9 -50 20 -18 13 14 24 30 24 34 0 19 -28 8 -44
-16z"/>
<path d="M2700 3224 c0 -8 5 -12 10 -9 6 3 10 10 10 16 0 5 -4 9 -10 9 -5 0
-10 -7 -10 -16z"/>
<path d="M2165 3380 c-3 -5 -2 -10 4 -10 5 0 13 5 16 10 3 6 2 10 -4 10 -5 0
-13 -4 -16 -10z"/>
<path d="M2539 2362 c0 -4 -2 -17 -5 -29 -5 -28 11 -30 26 -4 5 11 10 22 10
24 0 8 -30 17 -31 9z"/>
<path d="M2579 2233 c-18 -4 -33 -43 -17 -43 5 0 18 5 29 10 10 6 19 7 19 2 0
-5 12 -7 27 -4 l26 5 -22 18 c-23 19 -31 21 -62 12z"/>
<path d="M1925 2160 c3 -5 11 -10 16 -10 6 0 7 5 4 10 -3 6 -11 10 -16 10 -6
0 -7 -4 -4 -10z"/>
<path d="M2495 1840 c-3 -5 -1 -10 4 -10 6 0 11 5 11 10 0 6 -2 10 -4 10 -3 0
-8 -4 -11 -10z"/>
<path d="M2555 3831 c-17 -16 30 -42 73 -40 26 1 26 1 -6 12 -20 6 -31 15 -28
23 5 12 -28 16 -39 5z"/>
<path d="M2615 3830 c3 -5 8 -10 11 -10 2 0 4 5 4 10 0 6 -5 10 -11 10 -5 0
-7 -4 -4 -10z"/>
<path d="M2553 3776 c-7 -8 -8 -18 -2 -27 7 -11 9 -11 9 4 0 9 7 17 15 17 8 0
15 5 15 10 0 14 -23 12 -37 -4z"/>
<path d="M2600 3761 c0 -11 25 -21 55 -21 36 0 39 17 4 24 -43 8 -59 8 -59 -3z"/>
<path d="M2440 3730 c33 -31 50 -38 50 -20 0 6 -7 10 -15 10 -8 0 -15 6 -15
14 0 8 -7 17 -16 20 -33 13 -35 5 -4 -24z"/>
<path d="M2470 3750 c0 -12 28 -25 36 -17 3 3 -4 10 -15 17 -15 7 -21 7 -21 0z"/>
<path d="M2528 3723 c7 -3 16 -2 19 1 4 3 -2 6 -13 5 -11 0 -14 -3 -6 -6z"/>
<path d="M2518 3701 c7 -4 12 -12 11 -17 -3 -14 12 -44 23 -44 6 0 5 7 -2 15
-7 9 -10 18 -7 22 9 8 -12 33 -27 33 -7 0 -6 -3 2 -9z"/>
<path d="M2328 3693 c-32 -8 -19 -19 18 -15 25 3 32 7 23 13 -8 5 -16 8 -19 8
-3 -1 -13 -3 -22 -6z"/>
<path d="M2495 3680 c-3 -5 -1 -10 4 -10 6 0 11 5 11 10 0 6 -2 10 -4 10 -3 0
-8 -4 -11 -10z"/>
<path d="M2450 3643 c1 -24 60 -57 60 -34 0 6 -9 11 -20 11 -11 0 -20 7 -20
15 0 8 -4 15 -10 15 -5 0 -10 -3 -10 -7z"/>
<path d="M2212 3594 c-24 -14 -41 -28 -38 -32 3 -3 14 2 24 11 10 10 23 17 29
17 6 0 16 7 23 15 17 20 12 19 -38 -11z"/>
<path d="M2328 3593 c6 -2 18 -2 25 0 6 3 1 5 -13 5 -14 0 -19 -2 -12 -5z"/>
<path d="M2280 3530 c-8 -5 -12 -11 -9 -14 3 -3 14 1 25 9 21 16 8 20 -16 5z"/>
<path d="M1904 3383 c2 -10 -6 -23 -18 -30 -28 -16 -39 -16 -33 1 4 10 0 12
-14 9 -10 -3 -17 -9 -14 -13 3 -5 1 -11 -5 -15 -5 -3 -10 -14 -10 -23 1 -15 2
-15 15 2 14 19 40 13 29 -7 -5 -9 -4 -9 6 0 15 13 40 7 58 -15 10 -14 12 -13
12 5 0 13 -8 23 -22 27 -22 6 -21 8 12 26 31 17 32 19 12 20 -13 0 -21 4 -17
9 3 5 1 12 -4 15 -5 4 -8 -2 -7 -11z"/>
<path d="M1815 3230 c-3 -5 -1 -10 4 -10 6 0 11 5 11 10 0 6 -2 10 -4 10 -3 0
-8 -4 -11 -10z"/>
<path d="M4895 3084 c-17 -13 -18 -16 -5 -24 8 -5 18 -10 22 -10 13 0 19 20
11 34 -7 13 -11 12 -28 0z"/>
<path d="M2230 3066 c0 -2 7 -7 16 -10 8 -3 12 -2 9 4 -6 10 -25 14 -25 6z"/>
<path d="M4990 3051 c0 -6 -7 -11 -15 -11 -8 0 -15 -4 -15 -10 0 -11 106 -8
117 3 4 4 1 13 -5 19 -8 8 -12 8 -12 1 0 -18 -39 -22 -55 -6 -8 8 -15 10 -15
4z"/>
<path d="M2175 3040 c-3 -5 -1 -10 4 -10 6 0 11 5 11 10 0 6 -2 10 -4 10 -3 0
-8 -4 -11 -10z"/>
<path d="M4929 3033 c-1 -5 -1 -12 0 -17 1 -4 -4 -14 -10 -22 -9 -11 -7 -14
15 -14 17 0 26 5 26 16 0 9 -5 12 -12 8 -8 -5 -9 0 -6 14 4 12 2 22 -3 22 -5
0 -10 -3 -10 -7z"/>
<path d="M5136 3001 c-19 -7 -19 -8 2 -13 15 -4 22 -2 22 8 0 8 -1 14 -2 13
-2 0 -12 -4 -22 -8z"/>
<path d="M5030 2950 c0 -5 5 -10 10 -10 6 0 10 5 10 10 0 6 -4 10 -10 10 -5 0
-10 -4 -10 -10z"/>
<path d="M4970 2924 c-13 -15 -6 -17 24 -5 17 6 17 8 3 14 -8 3 -21 -1 -27 -9z"/>
<path d="M208 2873 c6 -2 18 -2 25 0 6 3 1 5 -13 5 -14 0 -19 -2 -12 -5z"/>
<path d="M4755 2870 c-3 -5 1 -10 9 -10 9 0 16 -7 16 -16 0 -8 5 -12 10 -9 7
4 7 13 0 26 -12 21 -25 25 -35 9z"/>
<path d="M4518 2851 c-20 -24 -13 -31 22 -20 17 5 19 7 7 8 -10 1 -15 6 -12
11 3 6 17 8 30 6 14 -3 27 -1 29 3 3 4 -10 8 -27 9 -22 2 -38 -4 -49 -17z"/>
<path d="M4645 2860 c3 -5 17 -10 30 -10 14 0 25 -7 28 -17 4 -14 5 -14 6 3 1
15 -7 24 -21 28 -34 9 -50 7 -43 -4z"/>
<path d="M462 2840 c0 -14 2 -19 5 -12 2 6 2 18 0 25 -3 6 -5 1 -5 -13z"/>
<path d="M4034 2845 c34 -18 36 -18 36 -2 0 6 -14 13 -32 14 l-33 3 29 -15z"/>
<path d="M4381 2848 c-1 -12 -9 -18 -26 -18 -14 0 -25 -4 -25 -9 0 -15 25 -19
47 -7 15 8 18 16 12 31 -6 17 -8 17 -8 3z"/>
<path d="M253 2843 c9 -2 25 -2 35 0 9 3 1 5 -18 5 -19 0 -27 -2 -17 -5z"/>
<path d="M4432 2822 c7 -10 18 -20 23 -24 15 -11 55 -10 55 2 0 6 -6 9 -12 8
-7 -2 -12 4 -12 14 1 12 -7 16 -33 16 -30 0 -32 -2 -21 -16z"/>
<path d="M4750 2831 c0 -6 5 -13 10 -16 6 -3 10 1 10 9 0 9 -4 16 -10 16 -5 0
-10 -4 -10 -9z"/>
<path d="M4156 2822 c-3 -6 -1 -14 5 -17 15 -10 25 3 12 16 -7 7 -13 7 -17 1z"/>
<path d="M5100 2810 c0 -5 5 -10 10 -10 6 0 10 5 10 10 0 6 -4 10 -10 10 -5 0
-10 -4 -10 -10z"/>
<path d="M3910 2790 c-11 -21 -11 -22 11 -17 13 4 30 7 37 7 6 0 12 5 12 11 0
6 -7 8 -17 5 -9 -4 -20 -1 -24 5 -4 8 -11 4 -19 -11z"/>
<path d="M305 2770 c-3 -5 1 -10 9 -10 8 0 18 5 21 10 3 6 -1 10 -9 10 -8 0
-18 -4 -21 -10z"/>
<path d="M391 2754 c0 -11 3 -14 6 -6 3 7 2 16 -1 19 -3 4 -6 -2 -5 -13z"/>
<path d="M3815 2750 c-3 -5 1 -10 9 -10 9 0 16 5 16 10 0 6 -4 10 -9 10 -6 0
-13 -4 -16 -10z"/>
<path d="M4533 2749 c11 -7 23 -7 35 0 14 9 11 10 -18 10 -29 0 -32 -1 -17
-10z"/>
<path d="M3878 2743 c6 -2 18 -2 25 0 6 3 1 5 -13 5 -14 0 -19 -2 -12 -5z"/>
<path d="M330 2730 c-24 -8 -23 -8 8 -9 20 -1 31 3 27 9 -3 6 -7 10 -8 9 -1
-1 -13 -5 -27 -9z"/>
<path d="M4655 2721 c3 -6 -2 -14 -11 -19 -18 -10 -11 -32 9 -32 28 1 39 17
28 39 -7 11 -16 21 -22 21 -6 0 -8 -4 -4 -9z"/>
<path d="M440 2708 c0 -7 11 -13 25 -13 14 0 25 6 25 13 0 6 -11 12 -25 12
-14 0 -25 -6 -25 -12z"/>
<path d="M620 2710 c0 -5 10 -10 23 -10 18 0 19 2 7 10 -19 13 -30 13 -30 0z"/>
<path d="M4210 2705 c0 -11 -11 -15 -36 -15 -49 0 -34 -16 23 -25 27 -4 55
-11 64 -16 10 -5 24 -2 39 8 13 9 20 11 16 5 -4 -7 -3 -12 3 -12 5 0 16 -3 25
-6 13 -5 16 1 15 32 0 35 -1 36 -10 16 -5 -13 -6 -29 -3 -35 3 -7 -1 -5 -8 3
-7 8 -23 20 -35 27 -19 11 -23 10 -29 -9 -6 -20 -8 -20 -19 -5 -6 9 -15 13
-20 9 -4 -4 -4 3 -1 16 6 16 3 22 -8 22 -9 0 -16 -7 -16 -15z"/>
<path d="M530 2700 c0 -5 5 -10 10 -10 6 0 10 5 10 10 0 6 -4 10 -10 10 -5 0
-10 -4 -10 -10z"/>
<path d="M3906 2701 c-9 -14 3 -18 62 -20 40 -1 53 2 49 11 -2 7 -11 12 -18
10 -24 -6 -44 -6 -66 2 -12 4 -24 2 -27 -3z"/>
<path d="M3786 2681 c17 -17 109 -17 99 -1 -3 6 -29 10 -58 10 -31 0 -47 -4
-41 -9z"/>
<path d="M4410 2675 c0 -8 7 -15 16 -15 14 0 14 3 4 15 -7 8 -14 15 -16 15 -2
0 -4 -7 -4 -15z"/>
<path d="M4578 2683 c7 -3 16 -2 19 1 4 3 -2 6 -13 5 -11 0 -14 -3 -6 -6z"/>
<path d="M440 2670 c0 -5 5 -10 10 -10 6 0 10 5 10 10 0 6 -4 10 -10 10 -5 0
-10 -4 -10 -10z"/>
<path d="M4043 2664 c-23 -24 -15 -41 16 -36 24 3 30 0 34 -19 4 -22 4 -22 6
4 1 18 -4 27 -14 27 -9 0 -19 9 -23 19 -6 16 -9 17 -19 5z"/>
<path d="M477 2655 c-4 -8 -2 -17 3 -20 6 -4 10 3 10 14 0 25 -6 27 -13 6z"/>
<path d="M5120 2660 c-13 -8 -12 -10 3 -10 9 0 17 5 17 10 0 12 -1 12 -20 0z"/>
<path d="M3867 2646 c-4 -10 -1 -13 9 -9 15 6 19 23 5 23 -5 0 -11 -7 -14 -14z"/>
<path d="M4610 2646 c0 -6 60 -36 72 -36 20 0 5 19 -23 29 -34 12 -49 14 -49
7z"/>
<path d="M4745 2640 c3 -5 8 -10 11 -10 2 0 4 5 4 10 0 6 -5 10 -11 10 -5 0
-7 -4 -4 -10z"/>
<path d="M443 2620 c-1 -11 2 -20 8 -20 5 0 9 9 9 20 0 11 -4 20 -8 20 -4 0
-8 -9 -9 -20z"/>
<path d="M3830 2629 c0 -5 5 -7 10 -4 6 3 10 8 10 11 0 2 -4 4 -10 4 -5 0 -10
-5 -10 -11z"/>
<path d="M3940 2629 c0 -5 5 -7 10 -4 6 3 10 8 10 11 0 2 -4 4 -10 4 -5 0 -10
-5 -10 -11z"/>
<path d="M725 2601 c-3 -5 -1 -12 5 -16 5 -3 10 1 10 9 0 18 -6 21 -15 7z"/>
<path d="M756 2595 c4 -8 16 -15 29 -15 13 0 25 7 29 15 4 12 -3 15 -29 15
-26 0 -33 -3 -29 -15z"/>
<path d="M211 2582 c-1 -7 6 -20 14 -29 8 -8 13 -19 10 -24 -10 -16 -25 -10
-25 10 0 10 -7 24 -15 31 -13 11 -15 8 -15 -18 0 -17 6 -33 13 -35 6 -3 -3 -3
-20 0 -28 5 -33 3 -33 -15 0 -14 8 -21 30 -24 17 -3 34 0 38 6 4 6 19 17 35
25 15 8 27 19 27 24 0 5 8 16 18 23 15 12 12 13 -25 14 -23 0 -44 5 -46 13 -4
9 -6 9 -6 -1z"/>
<path d="M4910 2580 c0 -5 5 -10 10 -10 6 0 10 5 10 10 0 6 -4 10 -10 10 -5 0
-10 -4 -10 -10z"/>
<path d="M4650 2571 c0 -5 5 -13 10 -16 6 -3 10 -2 10 4 0 5 -4 13 -10 16 -5
3 -10 2 -10 -4z"/>
<path d="M4136 2552 c-13 -12 -5 -22 19 -22 14 0 25 4 25 9 0 10 -36 21 -44
13z"/>
<path d="M4590 2556 c0 -2 7 -6 15 -10 8 -3 15 -1 15 4 0 6 -7 10 -15 10 -8 0
-15 -2 -15 -4z"/>
<path d="M4285 2540 c-17 -7 -15 -9 13 -9 17 -1 32 4 32 9 0 12 -17 12 -45 0z"/>
<path d="M4355 2540 c3 -5 8 -10 11 -10 2 0 4 5 4 10 0 6 -5 10 -11 10 -5 0
-7 -4 -4 -10z"/>
<path d="M4940 2542 c0 -5 7 -9 15 -9 8 0 15 4 15 9 0 4 -7 8 -15 8 -8 0 -15
-4 -15 -8z"/>
<path d="M805 2520 c-3 -5 1 -10 10 -10 9 0 13 5 10 10 -3 6 -8 10 -10 10 -2
0 -7 -4 -10 -10z"/>
<path d="M864 2514 c3 -9 6 -24 6 -35 0 -25 26 -25 33 0 2 11 -3 25 -14 35
-24 20 -33 20 -25 0z"/>
<path d="M4555 2510 c-4 -6 6 -7 27 -3 44 8 48 13 10 13 -17 0 -34 -4 -37 -10z"/>
<path d="M4978 2513 c12 -2 30 -2 40 0 9 3 -1 5 -23 4 -22 0 -30 -2 -17 -4z"/>
<path d="M5098 2513 c6 -2 18 -2 25 0 6 3 1 5 -13 5 -14 0 -19 -2 -12 -5z"/>
<path d="M1398 2503 c7 -3 16 -2 19 1 4 3 -2 6 -13 5 -11 0 -14 -3 -6 -6z"/>
<path d="M915 2470 c-3 -5 -1 -10 4 -10 6 0 11 5 11 10 0 6 -2 10 -4 10 -3 0
-8 -4 -11 -10z"/>
<path d="M663 2435 c-24 -25 -30 -45 -14 -45 5 0 11 9 14 21 3 12 10 18 16 14
7 -3 11 2 11 14 0 25 0 25 -27 -4z"/>
<path d="M1591 2444 c0 -11 3 -14 6 -6 3 7 2 16 -1 19 -3 4 -6 -2 -5 -13z"/>
<path d="M3835 2450 c-3 -5 1 -10 10 -10 9 0 13 5 10 10 -3 6 -8 10 -10 10 -2
0 -7 -4 -10 -10z"/>
<path d="M4192 2443 c5 -25 25 -27 38 -4 10 19 8 21 -15 21 -19 0 -26 -5 -23
-17z"/>
<path d="M4270 2452 c23 -4 23 -5 5 -12 -16 -6 -13 -8 16 -11 31 -4 35 -2 31
13 -3 14 -14 18 -41 17 -28 -1 -30 -3 -11 -7z"/>
<path d="M4340 2441 c0 -5 9 -7 20 -4 11 3 20 7 20 9 0 2 -9 4 -20 4 -11 0
-20 -4 -20 -9z"/>
<path d="M4810 2440 c0 -5 5 -10 11 -10 5 0 7 5 4 10 -3 6 -8 10 -11 10 -2 0
-4 -4 -4 -10z"/>
<path d="M1545 2420 c3 -5 8 -10 11 -10 2 0 4 5 4 10 0 6 -5 10 -11 10 -5 0
-7 -4 -4 -10z"/>
<path d="M4780 2415 c0 -23 24 -45 49 -45 23 0 28 4 24 18 -2 10 -10 19 -16
19 -7 0 -22 3 -34 7 -13 4 -23 4 -23 1z"/>
<path d="M4658 2393 c7 -3 16 -2 19 1 4 3 -2 6 -13 5 -11 0 -14 -3 -6 -6z"/>
<path d="M4390 2375 c0 -18 12 -19 28 -3 10 10 14 8 18 -10 7 -24 6 -24 86
-26 71 -1 75 13 9 37 -62 22 -141 23 -141 2z"/>
<path d="M4035 2372 c-46 -4 -70 -19 -28 -19 15 0 37 -3 47 -8 13 -6 17 -5 13
2 -4 6 -1 13 5 16 23 8 4 12 -37 9z"/>
<path d="M170 2319 c0 -22 4 -38 8 -35 8 5 4 76 -4 76 -2 0 -4 -18 -4 -41z"/>
<path d="M538 2353 c6 -2 18 -2 25 0 6 3 1 5 -13 5 -14 0 -19 -2 -12 -5z"/>
<path d="M1272 2339 c-18 -29 -2 -45 27 -27 11 7 21 16 21 20 0 5 5 8 11 8 5
0 7 -5 3 -12 -5 -7 -3 -8 5 -3 9 5 10 10 2 18 -8 8 -14 8 -23 -1 -16 -16 -26
-15 -30 3 -2 12 -6 11 -16 -6z m18 -19 c0 -5 -4 -10 -10 -10 -5 0 -10 5 -10
10 0 6 5 10 10 10 6 0 10 -4 10 -10z"/>
<path d="M272 2320 c0 -19 2 -27 5 -17 2 9 2 25 0 35 -3 9 -5 1 -5 -18z"/>
<path d="M660 2346 c0 -2 7 -6 15 -10 8 -3 15 -1 15 4 0 6 -7 10 -15 10 -8 0
-15 -2 -15 -4z"/>
<path d="M1089 2339 c-12 -9 -12 -10 1 -6 8 2 23 0 33 -5 9 -5 17 -6 17 -4 0
13 -37 24 -51 15z"/>
<path d="M4490 2303 c0 -13 5 -23 10 -23 13 0 13 11 0 30 -8 12 -10 11 -10 -7z"/>
<path d="M4515 2310 c-4 -6 7 -10 24 -10 17 0 31 5 31 10 0 6 -11 10 -24 10
-14 0 -28 -4 -31 -10z"/>
<path d="M1320 2299 c0 -5 5 -7 10 -4 6 3 10 8 10 11 0 2 -4 4 -10 4 -5 0 -10
-5 -10 -11z"/>
<path d="M3778 2293 c7 -3 16 -2 19 1 4 3 -2 6 -13 5 -11 0 -14 -3 -6 -6z"/>
<path d="M4053 2283 c9 -2 25 -2 35 0 9 3 1 5 -18 5 -19 0 -27 -2 -17 -5z"/>
<path d="M3696 2271 c-4 -5 -2 -12 3 -15 5 -4 12 -2 15 3 4 5 2 12 -3 15 -5 4
-12 2 -15 -3z"/>
<path d="M1000 2260 c0 -5 7 -10 16 -10 8 0 12 5 9 10 -3 6 -10 10 -16 10 -5
0 -9 -4 -9 -10z"/>
<path d="M1470 2261 c0 -5 9 -7 20 -4 11 3 20 7 20 9 0 2 -9 4 -20 4 -11 0
-20 -4 -20 -9z"/>
<path d="M3888 2263 c6 -2 18 -2 25 0 6 3 1 5 -13 5 -14 0 -19 -2 -12 -5z"/>
<path d="M3958 2263 c7 -3 16 -2 19 1 4 3 -2 6 -13 5 -11 0 -14 -3 -6 -6z"/>
<path d="M3605 2240 c-3 -5 -1 -10 4 -10 6 0 11 5 11 10 0 6 -2 10 -4 10 -3 0
-8 -4 -11 -10z"/>
<path d="M5122 2230 c0 -14 2 -19 5 -12 2 6 2 18 0 25 -3 6 -5 1 -5 -13z"/>
<path d="M371 2224 c0 -11 3 -14 6 -6 3 7 2 16 -1 19 -3 4 -6 -2 -5 -13z"/>
<path d="M3650 2219 c0 -5 -4 -7 -10 -4 -5 3 -10 -1 -10 -9 0 -8 4 -18 10 -21
14 -8 -11 -34 -27 -28 -7 3 -13 0 -13 -5 0 -6 15 -13 33 -16 26 -4 67 -5 67
-2 0 1 4 16 9 34 11 36 -3 45 -15 10 -7 -22 -8 -22 -15 7 -6 20 -4 32 4 37 8
5 4 8 -10 8 -13 0 -23 -5 -23 -11z"/>
<path d="M4365 2212 c-16 -10 -32 -18 -34 -19 -2 -2 -2 -6 1 -9 10 -9 80 25
73 36 -3 5 -7 10 -8 9 -1 0 -15 -8 -32 -17z"/>
<path d="M5151 2214 c0 -11 3 -14 6 -6 3 7 2 16 -1 19 -3 4 -6 -2 -5 -13z"/>
<path d="M3606 2201 c-4 -7 -5 -15 -2 -18 9 -9 19 4 14 18 -4 11 -6 11 -12 0z"/>
<path d="M4988 2203 c14 -3 22 -12 22 -24 0 -10 5 -19 10 -19 11 0 13 11 4 34
-4 10 -17 15 -33 15 -23 -2 -24 -2 -3 -6z"/>
<path d="M4506 2182 c-3 -6 -1 -14 5 -17 15 -10 25 3 12 16 -7 7 -13 7 -17 1z"/>
<path d="M5121 2174 c0 -11 3 -14 6 -6 3 7 2 16 -1 19 -3 4 -6 -2 -5 -13z"/>
<path d="M580 2170 c0 -5 5 -10 10 -10 6 0 10 5 10 10 0 6 -4 10 -10 10 -5 0
-10 -4 -10 -10z"/>
<path d="M4195 2161 c-3 -5 0 -13 6 -17 7 -4 9 -3 5 4 -3 5 0 13 6 15 9 4 10
6 1 6 -6 1 -14 -3 -18 -8z"/>
<path d="M4840 2144 c0 -14 4 -23 9 -20 5 3 7 15 4 26 -7 28 -13 25 -13 -6z"/>
<path d="M3560 2144 c0 -8 5 -12 10 -9 6 3 10 10 10 16 0 5 -4 9 -10 9 -5 0
-10 -7 -10 -16z"/>
<path d="M4950 2150 c-13 -8 -13 -10 2 -10 9 0 20 5 23 10 8 13 -5 13 -25 0z"/>
<path d="M768 2143 c7 -3 16 -2 19 1 4 3 -2 6 -13 5 -11 0 -14 -3 -6 -6z"/>
<path d="M1494 2139 c-9 -15 13 -36 25 -23 6 5 4 14 -4 21 -10 9 -16 10 -21 2z"/>
<path d="M3780 2128 c0 -21 11 -23 28 -6 17 17 15 24 -8 24 -13 0 -20 -7 -20
-18z"/>
<path d="M4900 2140 c-12 -8 -10 -10 8 -10 13 0 20 4 17 10 -7 12 -6 12 -25 0z"/>
<path d="M3710 2132 c0 -12 19 -26 26 -19 2 2 -2 10 -11 17 -9 8 -15 8 -15 2z"/>
<path d="M4088 2123 c12 -2 30 -2 40 0 9 3 -1 5 -23 4 -22 0 -30 -2 -17 -4z"/>
<path d="M5025 2120 c-3 -5 3 -10 15 -10 12 0 18 5 15 10 -3 6 -10 10 -15 10
-5 0 -12 -4 -15 -10z"/>
<path d="M4535 2110 c-3 -5 1 -10 9 -10 9 0 16 5 16 10 0 6 -4 10 -9 10 -6 0
-13 -4 -16 -10z"/>
<path d="M4578 2113 c7 -3 16 -2 19 1 4 3 -2 6 -13 5 -11 0 -14 -3 -6 -6z"/>
<path d="M4905 2108 c-93 -13 -114 -33 -25 -23 89 9 120 16 120 26 0 10 2 10
-95 -3z"/>
<path d="M4415 2100 c3 -5 15 -10 26 -10 10 0 19 5 19 10 0 6 -12 10 -26 10
-14 0 -23 -4 -19 -10z"/>
<path d="M5118 2103 c7 -3 16 -2 19 1 4 3 -2 6 -13 5 -11 0 -14 -3 -6 -6z"/>
<path d="M4788 2093 c7 -3 16 -2 19 1 4 3 -2 6 -13 5 -11 0 -14 -3 -6 -6z"/>
<path d="M3690 2080 c0 -5 -15 -7 -32 -5 l-33 5 32 -11 c18 -7 34 -19 36 -28
3 -9 5 -1 6 17 0 17 -1 32 -4 32 -3 0 -5 -4 -5 -10z"/>
<path d="M4725 2080 c3 -5 11 -10 16 -10 6 0 7 5 4 10 -3 6 -11 10 -16 10 -6
0 -7 -4 -4 -10z"/>
<path d="M4959 2078 c-10 -7 0 -8 34 -5 26 3 47 1 47 -4 0 -5 4 -9 8 -9 5 0 9
6 9 14 0 17 -75 20 -98 4z"/>
<path d="M4680 2070 c19 -13 30 -13 30 0 0 6 -10 10 -22 10 -19 0 -20 -2 -8
-10z"/>
<path d="M4543 2063 c9 -2 23 -2 30 0 6 3 -1 5 -18 5 -16 0 -22 -2 -12 -5z"/>
<path d="M4788 2063 c7 -3 16 -2 19 1 4 3 -2 6 -13 5 -11 0 -14 -3 -6 -6z"/>
<path d="M5075 2062 c-14 -15 0 -22 40 -22 33 0 45 4 45 15 0 11 -10 14 -40
13 -22 -1 -42 -4 -45 -6z"/>
<path d="M4423 2053 c-20 -8 -15 -23 7 -23 11 0 20 4 20 9 0 5 8 12 18 14 11
3 8 5 -8 5 -14 0 -31 -2 -37 -5z"/>
<path d="M4505 2050 c4 -6 -6 -10 -21 -10 -19 0 -25 -3 -18 -10 7 -7 29 -7 65
-1 40 6 45 9 22 10 -18 0 -33 6 -33 11 0 6 -5 10 -11 10 -5 0 -7 -4 -4 -10z"/>
<path d="M4985 2049 c-17 -8 -15 -8 8 -4 15 3 27 1 27 -5 0 -5 5 -10 11 -10 8
0 8 5 -1 15 -14 17 -17 17 -45 4z"/>
<path d="M1153 2043 c9 -2 23 -2 30 0 6 3 -1 5 -18 5 -16 0 -22 -2 -12 -5z"/>
<path d="M4830 2040 c-22 -7 -21 -8 13 -9 20 -1 37 4 37 9 0 11 -14 11 -50 0z"/>
<path d="M4904 2041 c5 -8 56 -3 56 5 0 2 -14 4 -31 4 -16 0 -28 -4 -25 -9z"/>
<path d="M4648 2033 c7 -3 16 -2 19 1 4 3 -2 6 -13 5 -11 0 -14 -3 -6 -6z"/>
<path d="M4768 2033 c7 -3 16 -2 19 1 4 3 -2 6 -13 5 -11 0 -14 -3 -6 -6z"/>
<path d="M3390 2020 c0 -5 5 -10 10 -10 6 0 10 5 10 10 0 6 -4 10 -10 10 -5 0
-10 -4 -10 -10z"/>
<path d="M4021 2008 c-1 -22 18 -23 55 -3 27 14 27 15 7 15 -13 0 -23 -4 -23
-10 0 -14 -27 -12 -33 3 -3 7 -6 5 -6 -5z"/>
<path d="M4940 2012 c-36 -2 -68 -8 -72 -15 -6 -9 -8 -9 -8 1 0 6 -11 12 -25
12 -14 0 -24 -3 -24 -7 3 -21 -2 -34 -13 -32 -7 1 -68 1 -135 0 -96 -1 -123
-4 -123 -14 0 -23 35 -47 69 -47 18 0 39 -7 47 -15 18 -17 50 -20 59 -5 3 6 1
10 -4 10 -6 0 -11 8 -11 18 0 15 11 17 91 17 79 -1 93 -4 106 -20 10 -14 14
-16 13 -5 -1 8 1 25 5 38 6 19 9 20 19 8 14 -18 126 -28 132 -11 6 14 40 13
55 -2 20 -20 39 -3 39 33 0 30 -3 34 -27 34 -16 1 -50 2 -78 3 -27 1 -79 1
-115 -1z"/>
<path d="M1500 1980 c0 -5 7 -10 15 -10 8 0 15 5 15 10 0 6 -7 10 -15 10 -8 0
-15 -4 -15 -10z"/>
<path d="M1550 1980 c0 -5 5 -10 10 -10 6 0 10 5 10 10 0 6 -4 10 -10 10 -5 0
-10 -4 -10 -10z"/>
<path d="M4292 1965 c0 -16 2 -22 5 -12 2 9 2 23 0 30 -3 6 -5 -1 -5 -18z"/>
<path d="M210 1970 c0 -5 7 -10 15 -10 8 0 15 5 15 10 0 6 -7 10 -15 10 -8 0
-15 -4 -15 -10z"/>
<path d="M288 1968 c9 -9 15 -9 24 0 9 9 7 12 -12 12 -19 0 -21 -3 -12 -12z"/>
<path d="M3444 1965 c-5 -11 -10 -13 -19 -5 -8 6 -16 7 -19 2 -8 -13 4 -22 30
-22 23 0 40 25 23 35 -5 4 -12 -1 -15 -10z"/>
<path d="M1672 1948 c2 -13 8 -23 13 -23 6 0 11 10 13 23 2 15 -2 22 -13 22
-11 0 -15 -7 -13 -22z"/>
<path d="M3995 1960 c-3 -5 3 -10 15 -10 12 0 18 5 15 10 -3 6 -10 10 -15 10
-5 0 -12 -4 -15 -10z"/>
<path d="M145 1940 c-3 -5 1 -10 10 -10 9 0 13 5 10 10 -3 6 -8 10 -10 10 -2
0 -7 -4 -10 -10z"/>
<path d="M4374 1908 c3 -13 6 -27 6 -33 0 -5 4 -4 9 4 10 16 3 51 -11 51 -6 0
-8 -10 -4 -22z"/>
<path d="M3600 1910 c-13 -8 -12 -10 3 -10 9 0 17 5 17 10 0 12 -1 12 -20 0z"/>
<path d="M4930 1907 c0 -9 11 -12 35 -9 41 5 37 22 -6 22 -17 0 -29 -5 -29
-13z"/>
<path d="M3635 1900 c3 -5 8 -10 11 -10 2 0 4 5 4 10 0 6 -5 10 -11 10 -5 0
-7 -4 -4 -10z"/>
<path d="M3890 1902 c0 -6 6 -13 13 -15 6 -3 3 -6 -8 -6 -17 -1 -17 -3 -5 -11
24 -15 32 -12 28 12 -3 21 -28 39 -28 20z"/>
<path d="M4840 1900 c0 -5 5 -10 10 -10 6 0 10 5 10 10 0 6 -4 10 -10 10 -5 0
-10 -4 -10 -10z"/>
<path d="M5110 1892 c0 -15 5 -18 25 -14 23 4 36 22 16 22 -5 0 -16 3 -25 6
-11 4 -16 0 -16 -14z"/>
<path d="M580 1890 c0 -5 5 -10 10 -10 6 0 10 5 10 10 0 6 -4 10 -10 10 -5 0
-10 -4 -10 -10z"/>
<path d="M4010 1878 c0 -25 3 -28 35 -28 19 0 35 5 35 10 0 6 -10 10 -21 10
-12 0 -28 8 -35 18 -12 15 -13 14 -14 -10z"/>
<path d="M4480 1889 c0 -5 5 -7 10 -4 6 3 10 8 10 11 0 2 -4 4 -10 4 -5 0 -10
-5 -10 -11z"/>
<path d="M4546 1885 c6 -15 4 -16 -14 -6 -17 9 -22 9 -22 -1 0 -22 19 -44 28
-32 10 14 38 24 47 16 10 -10 75 -12 75 -2 0 9 -33 22 -65 25 -11 1 -28 5 -38
10 -14 6 -16 4 -11 -10z"/>
<path d="M180 1880 c19 -13 30 -13 30 0 0 6 -10 10 -22 10 -19 0 -20 -2 -8
-10z"/>
<path d="M702 1860 c0 -19 2 -27 5 -17 2 9 2 25 0 35 -3 9 -5 1 -5 -18z"/>
<path d="M1016 1882 c-3 -3 -6 -23 -6 -44 0 -26 4 -38 14 -38 33 0 46 81 14
85 -9 2 -19 0 -22 -3z"/>
<path d="M4400 1880 c0 -5 5 -10 10 -10 6 0 10 5 10 10 0 6 -4 10 -10 10 -5 0
-10 -4 -10 -10z"/>
<path d="M4875 1880 c-3 -5 1 -10 9 -10 10 0 13 -6 9 -16 -3 -9 -9 -11 -12 -6
-3 5 -31 9 -61 8 -47 -1 -51 -2 -27 -10 15 -6 27 -13 27 -18 0 -4 5 -8 11 -8
5 0 8 4 5 9 -3 5 3 11 14 14 11 3 19 2 18 -2 -1 -3 3 -16 10 -29 14 -25 34
-21 30 6 -4 22 38 18 96 -8 22 -10 67 -21 99 -24 l57 -6 0 29 0 29 -104 0
c-104 0 -146 12 -146 39 0 15 -26 17 -35 3z"/>
<path d="M374 1865 c8 -8 22 -12 30 -9 27 10 18 24 -15 24 -27 0 -29 -2 -15
-15z"/>
<path d="M192 1845 c-11 -12 -10 -15 3 -15 8 0 15 7 15 15 0 18 -2 18 -18 0z"/>
<path d="M267 1853 c-4 -3 -7 -15 -7 -25 0 -13 7 -18 27 -18 l27 0 -32 -26
c-43 -36 -41 -52 6 -52 51 -1 68 10 53 34 -7 13 -10 14 -11 5 0 -8 -3 -11 -6
-8 -4 4 -1 13 6 22 8 10 9 15 1 15 -17 0 -13 30 6 37 15 6 15 7 -3 14 -24 10
-59 11 -67 2z"/>
<path d="M438 1853 c7 -3 16 -2 19 1 4 3 -2 6 -13 5 -11 0 -14 -3 -6 -6z"/>
<path d="M3426 1845 c4 -8 7 -15 9 -15 1 0 8 7 15 15 10 13 9 15 -8 15 -15 0
-20 -5 -16 -15z"/>
<path d="M3540 1849 c0 -5 5 -7 10 -4 6 3 10 8 10 11 0 2 -4 4 -10 4 -5 0 -10
-5 -10 -11z"/>
<path d="M4154 1848 c-5 -7 -3 -8 6 -3 7 4 16 2 21 -6 4 -7 11 -10 14 -7 10
10 -4 28 -20 28 -8 0 -17 -5 -21 -12z"/>
<path d="M4460 1853 c0 -1 9 -7 20 -13 15 -8 20 -8 20 3 0 7 -9 13 -20 13 -11
0 -20 -1 -20 -3z"/>
<path d="M230 1836 c0 -8 -3 -23 -7 -33 -6 -16 -5 -16 9 -5 9 7 16 22 15 33
-1 22 -17 26 -17 5z"/>
<path d="M1280 1816 c0 -35 13 -47 46 -42 23 3 31 41 13 62 -11 14 -13 14 -21
0 -11 -20 -32 -21 -24 -1 3 8 1 15 -4 15 -6 0 -10 -15 -10 -34z"/>
<path d="M1510 1840 c0 -5 7 -7 15 -4 8 4 15 8 15 10 0 2 -7 4 -15 4 -8 0 -15
-4 -15 -10z"/>
<path d="M1605 1840 c-3 -5 1 -10 10 -10 9 0 13 5 10 10 -3 6 -8 10 -10 10 -2
0 -7 -4 -10 -10z"/>
<path d="M1680 1840 c0 -5 5 -10 11 -10 5 0 7 5 4 10 -3 6 -8 10 -11 10 -2 0
-4 -4 -4 -10z"/>
<path d="M546 1825 c-12 -33 -7 -85 9 -85 8 0 15 7 15 15 0 8 7 15 15 15 8 0
15 4 15 10 0 5 -8 6 -17 3 -16 -6 -16 -5 -4 10 7 9 17 14 22 11 5 -3 9 2 9 10
0 9 -6 16 -14 16 -8 0 -21 3 -29 6 -8 3 -17 -2 -21 -11z"/>
<path d="M1738 1833 c7 -3 16 -2 19 1 4 3 -2 6 -13 5 -11 0 -14 -3 -6 -6z"/>
<path d="M3848 1833 c7 -3 16 -2 19 1 4 3 -2 6 -13 5 -11 0 -14 -3 -6 -6z"/>
<path d="M4562 1827 c7 -8 24 -19 36 -26 23 -12 23 -12 7 13 -10 14 -26 26
-37 26 -16 0 -17 -2 -6 -13z"/>
<path d="M4166 1808 c9 -32 11 -33 39 -18 22 12 23 15 10 22 -8 5 -20 6 -25 3
-6 -3 -10 -1 -10 4 0 6 -5 11 -11 11 -6 0 -8 -9 -3 -22z"/>
<path d="M4515 1819 c-10 -15 3 -25 16 -12 7 7 7 13 1 17 -6 3 -14 1 -17 -5z"/>
<path d="M4760 1818 c0 -4 -7 -8 -15 -8 -8 0 -15 -8 -16 -17 0 -14 -2 -13 -9
5 -10 23 -25 29 -35 12 -4 -6 -10 -8 -15 -5 -4 3 -16 2 -25 -1 -13 -5 -16 -15
-12 -40 3 -19 3 -34 1 -34 -9 0 -30 24 -37 43 -4 10 -11 15 -17 12 -5 -3 -10
1 -10 9 0 20 -14 21 -29 2 -6 -7 -22 -11 -36 -9 -19 4 -25 0 -30 -20 -4 -13
-5 -39 -3 -58 3 -31 6 -34 38 -35 56 -1 60 -3 60 -26 1 -21 2 -22 14 -5 14 18
47 14 45 -7 -5 -39 3 -76 15 -76 13 0 33 53 28 73 -2 5 6 11 16 14 11 2 25 16
31 29 10 24 27 29 80 24 19 -1 22 2 17 15 -3 9 -6 30 -6 46 0 23 -4 29 -22 30
-13 0 -17 3 -10 6 17 7 15 30 -3 30 -8 0 -15 -4 -15 -9z m30 -66 c0 -10 -57
-41 -64 -35 -7 7 47 52 56 46 5 -2 8 -7 8 -11z m-82 -34 c-6 -18 -28 -21 -28
-4 0 9 7 16 16 16 9 0 14 -5 12 -12z m-95 -15 c-7 -2 -19 -2 -25 0 -7 3 -2 5
12 5 14 0 19 -2 13 -5z m47 -6 c0 -7 -10 -18 -21 -26 -19 -11 -21 -11 -15 4 3
9 6 21 6 26 0 5 7 9 15 9 8 0 15 -6 15 -13z"/>
<path d="M4950 1802 c0 -14 35 -21 51 -11 11 7 11 9 -3 9 -9 0 -23 3 -32 6 -9
3 -16 2 -16 -4z"/>
<path d="M692 1780 c-11 -17 -10 -20 8 -20 21 0 25 7 12 27 -6 9 -11 7 -20 -7z"/>
<path d="M4830 1775 c0 -9 7 -18 15 -21 13 -5 13 -10 -3 -38 -21 -39 -32 -47
-54 -42 -26 6 -33 -13 -12 -30 17 -14 17 -15 2 -10 -10 3 -21 -1 -26 -10 -8
-14 -10 -14 -21 0 -16 19 -38 22 -24 4 6 -7 15 -26 21 -43 6 -16 11 -22 11
-13 1 28 34 40 59 22 12 -8 22 -22 22 -30 0 -8 9 -14 20 -14 13 0 20 -7 20
-19 0 -19 23 -35 34 -24 13 13 5 41 -13 46 -19 5 -36 67 -19 67 5 0 6 9 3 20
-4 12 -2 20 5 20 11 0 6 102 -6 121 -9 15 -34 10 -34 -6z"/>
<path d="M197 1760 c-3 -11 -1 -20 4 -20 5 0 9 7 9 16 0 8 5 12 10 9 6 -3 10
-1 10 4 0 19 -28 12 -33 -9z"/>
<path d="M360 1750 c0 -33 15 -41 22 -12 6 21 -1 42 -13 42 -5 0 -9 -13 -9
-30z"/>
<path d="M888 1733 c6 -2 18 -2 25 0 6 3 1 5 -13 5 -14 0 -19 -2 -12 -5z"/>
<path d="M1350 1731 c0 -5 -8 -8 -17 -7 -22 1 -29 -30 -8 -38 13 -4 14 -2 5
14 -6 11 -7 20 -2 20 5 0 13 -10 19 -22 9 -20 10 -19 10 10 0 18 -2 32 -4 32
-1 0 -3 -4 -3 -9z"/>
<path d="M390 1715 c0 -9 -10 -20 -22 -25 -19 -7 -17 -9 17 -9 22 1 35 3 29 5
-7 3 -10 14 -7 24 3 11 0 20 -6 20 -6 0 -11 -7 -11 -15z"/>
<path d="M1390 1710 c0 -11 7 -20 15 -20 8 0 12 6 9 14 -3 8 2 16 13 19 12 3
9 5 -9 6 -22 1 -28 -4 -28 -19z"/>
<path d="M1490 1710 c0 -11 5 -20 10 -20 6 0 10 9 10 20 0 11 -4 20 -10 20 -5
0 -10 -9 -10 -20z"/>
<path d="M5120 1720 c0 -13 11 -13 30 0 12 8 11 10 -7 10 -13 0 -23 -4 -23
-10z"/>
<path d="M208 1713 c6 -2 18 -2 25 0 6 3 1 5 -13 5 -14 0 -19 -2 -12 -5z"/>
<path d="M273 1713 c9 -2 23 -2 30 0 6 3 -1 5 -18 5 -16 0 -22 -2 -12 -5z"/>
<path d="M3462 1678 c1 -34 4 -38 27 -37 14 0 20 3 14 6 -7 2 -13 11 -13 19 0
8 -4 14 -10 14 -5 0 -10 5 -10 11 0 5 5 7 10 4 6 -3 10 0 10 8 0 7 -7 14 -15
14 -11 0 -14 -11 -13 -39z"/>
<path d="M4897 1714 c-7 -8 4 -44 14 -44 12 0 12 37 0 44 -4 3 -11 3 -14 0z"/>
<path d="M5065 1710 c3 -5 10 -10 16 -10 5 0 9 5 9 10 0 6 -7 10 -16 10 -8 0
-12 -4 -9 -10z"/>
<path d="M4391 1684 c0 -11 3 -14 6 -6 3 7 2 16 -1 19 -3 4 -6 -2 -5 -13z"/>
<path d="M268 1683 c12 -2 30 -2 40 0 9 3 -1 5 -23 4 -22 0 -30 -2 -17 -4z"/>
<path d="M2040 1660 c0 -13 5 -20 13 -17 6 2 12 10 12 17 0 7 -6 15 -12 18 -8
2 -13 -5 -13 -18z"/>
<path d="M3658 1673 c12 -2 30 -2 40 0 9 3 -1 5 -23 4 -22 0 -30 -2 -17 -4z"/>
<path d="M5130 1670 c0 -5 5 -10 10 -10 6 0 10 5 10 10 0 6 -4 10 -10 10 -5 0
-10 -4 -10 -10z"/>
<path d="M812 1645 c0 -16 2 -22 5 -12 2 9 2 23 0 30 -3 6 -5 -1 -5 -18z"/>
<path d="M1590 1659 c0 -11 54 -18 65 -8 6 6 6 9 0 10 -51 4 -65 4 -65 -2z"/>
<path d="M5074 1656 c-3 -8 -12 -12 -20 -9 -8 3 -14 0 -14 -6 0 -16 39 -14 56
3 18 19 18 26 -1 26 -9 0 -18 -6 -21 -14z"/>
<path d="M792 1640 c0 -14 2 -19 5 -12 2 6 2 18 0 25 -3 6 -5 1 -5 -13z"/>
<path d="M1707 1630 c9 -16 23 -30 30 -30 8 0 13 12 13 30 0 27 -3 30 -31 30
l-30 0 18 -30z"/>
<path d="M3635 1650 c-3 -5 -1 -10 4 -10 6 0 11 5 11 10 0 6 -2 10 -4 10 -3 0
-8 -4 -11 -10z"/>
<path d="M4736 1651 c-4 -7 -5 -15 -2 -18 9 -9 19 4 14 18 -4 11 -6 11 -12 0z"/>
<path d="M3668 1643 c6 -2 18 -2 25 0 6 3 1 5 -13 5 -14 0 -19 -2 -12 -5z"/>
<path d="M5002 1633 c-6 -3 -10 -8 -7 -13 3 -4 -2 -13 -10 -20 -21 -18 -18
-53 6 -73 24 -21 28 -20 31 14 2 18 -1 23 -14 21 -10 -2 -18 2 -18 8 0 5 7 10
15 10 8 0 15 5 15 10 0 6 5 10 11 10 8 0 7 -6 -2 -17 -12 -15 -12 -16 3 -11 9
4 24 1 34 -7 10 -7 29 -11 41 -9 14 3 23 -1 23 -8 0 -22 -17 -41 -29 -33 -7 4
-18 1 -26 -5 -17 -14 -20 1 -4 17 7 7 7 13 1 17 -13 8 -42 -3 -42 -16 0 -5 5
-6 10 -3 6 3 10 -3 10 -13 0 -24 -27 -37 -45 -22 -17 14 -27 -2 -19 -27 5 -14
3 -13 -10 4 -9 12 -13 28 -10 37 3 8 -1 22 -9 31 -17 17 -47 20 -47 5 0 -5 7
-7 15 -4 12 5 15 -3 16 -32 2 -48 2 -42 -6 -86 -7 -36 -6 -38 19 -38 16 0 26
-5 26 -15 0 -8 9 -15 19 -15 11 0 32 -5 48 -12 15 -6 34 -10 42 -9 8 1 18 -3
22 -11 7 -10 9 -10 9 0 0 6 6 12 14 12 8 0 17 -6 19 -12 3 -7 6 9 6 36 1 42
-1 47 -14 36 -9 -7 -19 -10 -23 -6 -4 4 0 13 9 19 9 7 16 20 16 30 0 19 -12
23 -22 7 -3 -5 -1 -10 6 -10 10 0 10 -3 0 -12 -11 -11 -14 -10 -18 0 -4 10 -8
10 -19 1 -25 -20 -27 -2 -4 31 12 17 28 29 35 26 8 -3 18 1 23 7 13 16 14 117
2 117 -6 0 -10 -4 -10 -10 0 -5 -4 -10 -10 -10 -5 0 -10 11 -10 25 0 14 -4 25
-10 25 -5 0 -10 -9 -10 -20 0 -11 -4 -20 -10 -20 -5 0 -10 5 -10 10 0 6 -10
10 -21 10 -12 0 -27 6 -33 14 -6 7 -17 12 -24 9z m28 -194 c0 -6 -4 -7 -10 -4
-5 3 -10 11 -10 16 0 6 5 7 10 4 6 -3 10 -11 10 -16z m70 -74 c-9 -22 -13 -25
-25 -15 -23 19 -19 48 8 52 28 4 30 -2 17 -37z"/>
<path d="M414 1618 c-5 -7 -2 -9 8 -5 9 3 20 1 25 -4 7 -7 12 -5 16 5 5 12 0
16 -18 16 -13 0 -27 -5 -31 -12z"/>
<path d="M757 1619 c7 -7 15 -10 18 -7 3 3 -2 9 -12 12 -14 6 -15 5 -6 -5z"/>
<path d="M4910 1625 c-1 -5 -2 -13 -1 -17 0 -4 -6 -5 -14 -2 -8 4 -15 1 -15
-4 0 -6 8 -12 18 -14 30 -6 62 4 62 19 0 10 -7 14 -20 10 -10 -3 -21 0 -24 7
-2 6 -5 7 -6 1z"/>
<path d="M5135 1620 c-3 -5 -1 -10 4 -10 6 0 11 5 11 10 0 6 -2 10 -4 10 -3 0
-8 -4 -11 -10z"/>
<path d="M1900 1605 c0 -17 35 -19 114 -9 73 10 54 24 -34 24 -64 0 -80 -3
-80 -15z"/>
<path d="M3290 1610 c-13 -8 -12 -10 3 -10 9 0 17 5 17 10 0 12 -1 12 -20 0z"/>
<path d="M470 1587 c0 -20 4 -24 20 -20 25 7 23 36 -3 41 -12 3 -17 -3 -17
-21z"/>
<path d="M1078 1593 c7 -3 16 -2 19 1 4 3 -2 6 -13 5 -11 0 -14 -3 -6 -6z"/>
<path d="M373 1578 c-40 -7 -51 -13 -46 -25 3 -9 8 -11 12 -4 4 5 22 13 41 16
19 3 39 10 45 16 5 5 7 8 5 8 -3 -1 -28 -6 -57 -11z"/>
<path d="M856 1575 c-3 -8 -1 -15 4 -15 6 0 10 7 10 15 0 8 -2 15 -4 15 -2 0
-6 -7 -10 -15z"/>
<path d="M3415 1583 c-36 -5 -68 -53 -35 -53 10 0 20 7 24 15 3 8 15 14 28 12
14 -1 23 4 26 16 2 9 0 16 -5 15 -4 0 -21 -3 -38 -5z"/>
<path d="M3580 1571 c0 -5 9 -11 20 -14 13 -3 20 0 20 9 0 8 -9 14 -20 14 -11
0 -20 -4 -20 -9z"/>
<path d="M430 1560 c0 -5 5 -10 11 -10 5 0 7 5 4 10 -3 6 -8 10 -11 10 -2 0
-4 -4 -4 -10z"/>
<path d="M1165 1560 c-3 -5 -1 -10 4 -10 6 0 11 5 11 10 0 6 -2 10 -4 10 -3 0
-8 -4 -11 -10z"/>
<path d="M3520 1554 c0 -8 5 -12 10 -9 6 4 8 11 5 16 -9 14 -15 11 -15 -7z"/>
<path d="M3635 1550 c-18 -19 -17 -20 5 -20 15 0 20 4 17 14 -3 8 -1 17 6 20
8 3 8 5 1 5 -6 1 -19 -8 -29 -19z"/>
<path d="M1020 1550 c0 -5 5 -10 10 -10 6 0 10 5 10 10 0 6 -4 10 -10 10 -5 0
-10 -4 -10 -10z"/>
<path d="M3550 1550 c0 -5 5 -10 10 -10 6 0 10 5 10 10 0 6 -4 10 -10 10 -5 0
-10 -4 -10 -10z"/>
<path d="M457 1530 c-4 -14 -6 -38 -6 -55 1 -24 3 -21 10 15 10 49 7 80 -4 40z"/>
<path d="M3282 1539 c18 -12 61 -11 53 0 -3 5 -19 9 -36 9 -20 -1 -26 -4 -17
-9z"/>
<path d="M3585 1540 c-3 -5 -1 -10 4 -10 6 0 11 5 11 10 0 6 -2 10 -4 10 -3 0
-8 -4 -11 -10z"/>
<path d="M490 1530 c0 -5 5 -10 10 -10 6 0 10 5 10 10 0 6 -4 10 -10 10 -5 0
-10 -4 -10 -10z"/>
<path d="M1510 1518 c0 -15 10 -18 66 -18 87 0 84 23 -4 30 -54 4 -62 3 -62
-12z"/>
<path d="M3423 1533 c9 -2 23 -2 30 0 6 3 -1 5 -18 5 -16 0 -22 -2 -12 -5z"/>
<path d="M3841 1494 c0 -11 3 -14 6 -6 3 7 2 16 -1 19 -3 4 -6 -2 -5 -13z"/>
<path d="M1708 1466 c-92 -13 -120 -32 -33 -22 75 9 183 35 140 34 -16 -1 -65
-6 -107 -12z"/>
<path d="M1020 1449 c0 -11 5 -17 10 -14 6 3 10 13 10 21 0 8 -4 14 -10 14 -5
0 -10 -9 -10 -21z"/>
<path d="M3816 1457 c3 -10 9 -15 12 -12 3 3 0 11 -7 18 -10 9 -11 8 -5 -6z"/>
<path d="M3850 1445 c0 -8 4 -15 10 -15 5 0 7 7 4 15 -4 8 -8 15 -10 15 -2 0
-4 -7 -4 -15z"/>
<path d="M3820 1410 c0 -5 5 -10 10 -10 6 0 10 5 10 10 0 6 -4 10 -10 10 -5 0
-10 -4 -10 -10z"/>
<path d="M3860 1400 c0 -5 -7 -10 -15 -10 -23 0 -18 -17 7 -24 27 -6 43 7 35
28 -7 18 -27 22 -27 6z"/>
<path d="M4419 1394 c-1 -5 -1 -12 0 -16 0 -5 -28 -8 -64 -8 -73 0 -90 -19
-34 -39 40 -14 39 -14 39 4 0 19 100 21 118 3 9 -9 12 -8 12 8 0 10 -4 24 -8
31 -9 14 -62 28 -63 17z m44 -21 c-7 -2 -19 -2 -25 0 -7 3 -2 5 12 5 14 0 19
-2 13 -5z"/>
<path d="M4313 1383 c9 -2 23 -2 30 0 6 3 -1 5 -18 5 -16 0 -22 -2 -12 -5z"/>
<path d="M3948 1373 c7 -3 16 -2 19 1 4 3 -2 6 -13 5 -11 0 -14 -3 -6 -6z"/>
<path d="M4548 1369 c-10 -5 -18 -20 -18 -32 1 -20 2 -20 11 -4 5 9 21 17 35
17 16 0 24 5 22 13 -6 16 -29 19 -50 6z"/>
<path d="M924 1335 c-10 -8 -14 -15 -8 -15 5 0 14 4 20 9 5 5 18 11 29 14 20
5 19 5 -1 6 -11 0 -29 -6 -40 -14z"/>
<path d="M4200 1321 c0 -5 7 -12 16 -15 22 -9 24 -8 24 9 0 8 -9 15 -20 15
-11 0 -20 -4 -20 -9z"/>
<path d="M4633 1323 c20 -2 54 -2 75 0 20 2 3 4 -38 4 -41 0 -58 -2 -37 -4z"/>
<path d="M4808 1323 c7 -3 16 -2 19 1 4 3 -2 6 -13 5 -11 0 -14 -3 -6 -6z"/>
<path d="M826 1275 c4 -8 8 -15 10 -15 2 0 4 7 4 15 0 8 -4 15 -10 15 -5 0 -7
-7 -4 -15z"/>
<path d="M1070 1280 c-14 -4 -46 -14 -72 -20 -27 -7 -48 -18 -48 -25 0 -6 -11
-18 -25 -25 -18 -9 -23 -19 -19 -32 3 -10 1 -18 -5 -18 -6 0 -11 -10 -11 -23
0 -23 51 -81 67 -76 4 2 16 19 25 39 36 73 74 133 102 161 30 30 28 33 -14 19z"/>
<path d="M395 1270 c-3 -5 -1 -10 4 -10 6 0 11 5 11 10 0 6 -2 10 -4 10 -3 0
-8 -4 -11 -10z"/>
<path d="M3932 1253 c4 -21 56 -28 136 -18 35 4 52 11 52 21 0 11 -19 14 -96
14 -86 0 -95 -2 -92 -17z"/>
<path d="M560 1248 c0 -4 24 -7 53 -7 54 1 49 5 -15 11 -21 2 -38 0 -38 -4z"/>
<path d="M410 1229 c0 -5 26 -9 57 -9 31 0 54 3 51 6 -10 9 -108 12 -108 3z"/>
<path d="M5138 1235 c-8 -9 4 -65 13 -59 11 7 12 64 1 64 -5 0 -11 -2 -14 -5z"/>
<path d="M220 1220 c0 -5 7 -7 15 -4 8 4 15 8 15 10 0 2 -7 4 -15 4 -8 0 -15
-4 -15 -10z"/>
<path d="M3751 1214 c0 -11 3 -14 6 -6 3 7 2 16 -1 19 -3 4 -6 -2 -5 -13z"/>
<path d="M610 1186 c0 -8 61 -12 66 -4 3 4 -11 8 -30 8 -20 0 -36 -2 -36 -4z"/>
<path d="M313 1135 c0 -27 2 -38 4 -22 2 15 2 37 0 50 -2 12 -4 0 -4 -28z"/>
<path d="M458 1143 c7 -3 16 -2 19 1 4 3 -2 6 -13 5 -11 0 -14 -3 -6 -6z"/>
<path d="M1758 1138 c-7 -19 2 -38 18 -38 17 0 17 10 0 33 -10 13 -15 14 -18
5z"/>
<path d="M524 1091 c-4 -9 -6 -26 -5 -38 2 -16 -3 -23 -16 -23 -15 0 -16 -2
-3 -10 12 -8 10 -10 -9 -10 -46 0 -13 -11 47 -15 63 -5 83 4 57 25 -10 9 -15
9 -15 1 0 -6 -4 -11 -10 -11 -5 0 -10 7 -10 15 0 8 -4 15 -10 15 -5 0 -10 7
-10 15 0 9 9 15 23 15 34 0 30 27 -4 32 -19 3 -30 -1 -35 -11z"/>
<path d="M775 1062 c2 -37 -1 -52 -12 -56 -8 -3 -11 -1 -8 4 3 6 1 10 -4 10
-12 0 -15 -26 -3 -33 4 -3 33 0 65 5 56 10 57 11 57 43 0 19 -4 37 -10 40 -5
3 -10 -2 -10 -12 0 -10 -5 -25 -11 -33 -8 -12 -9 -8 -5 15 6 39 -5 58 -28 49
-11 -4 -21 -1 -26 6 -5 8 -7 -8 -5 -38z"/>
<path d="M1531 1094 c0 -11 3 -14 6 -6 3 7 2 16 -1 19 -3 4 -6 -2 -5 -13z"/>
<path d="M1795 1080 c3 -5 8 -10 11 -10 2 0 4 5 4 10 0 6 -5 10 -11 10 -5 0
-7 -4 -4 -10z"/>
<path d="M882 1046 c0 -31 3 -36 24 -36 13 0 24 6 24 13 0 8 -11 24 -24 36
l-24 23 0 -36z"/>
<path d="M747 1063 c-13 -13 -7 -33 11 -33 13 0 14 2 3 9 -7 5 -10 14 -7 20 8
12 3 15 -7 4z"/>
<path d="M1169 1056 c-22 -26 -59 -88 -59 -98 0 -7 -5 -7 -14 1 -19 16 -38
-17 -36 -62 1 -18 1 -34 0 -37 0 -3 -2 -21 -4 -42 -3 -37 -36 -87 -36 -54 0 9
-4 16 -10 16 -5 0 -10 -12 -10 -26 0 -14 -4 -23 -10 -19 -5 3 -10 -4 -10 -15
0 -12 -9 -34 -20 -50 -11 -15 -17 -30 -13 -33 3 -4 1 -12 -5 -19 -5 -7 -12
-35 -15 -63 -3 -27 -10 -70 -15 -95 -7 -32 -7 -49 1 -58 8 -11 7 -13 -4 -12
-32 5 -40 -1 -37 -27 2 -16 8 -31 13 -35 6 -5 5 -11 -3 -17 -11 -7 -11 -9 2
-14 17 -7 22 -47 6 -47 -6 0 -9 3 -8 8 3 8 -5 12 -26 12 -7 0 -16 -8 -19 -19
-6 -23 11 -54 25 -45 6 4 6 -2 -1 -15 -7 -11 -8 -21 -4 -21 4 0 8 -12 8 -26 0
-25 0 -25 -14 -5 -17 26 -27 26 -41 1 -9 -16 -8 -19 6 -13 15 5 16 1 10 -33
-4 -21 -16 -51 -27 -66 -20 -28 -20 -28 1 -28 11 0 20 7 20 15 0 18 57 16 65
-2 3 -10 63 -13 250 -13 l245 0 0 31 c0 17 4 28 10 24 6 -3 10 -17 10 -31 l0
-24 121 0 120 0 -6 43 c-10 74 -22 260 -18 278 3 9 0 20 -6 23 -12 8 -14 -4
-11 -43 1 -14 -2 -21 -8 -17 -6 4 -13 -7 -16 -26 -2 -18 -2 21 0 87 3 66 10
147 17 180 15 73 7 329 -11 347 -9 9 -11 2 -8 -26 2 -38 -7 -57 -18 -34 -5 10
-7 10 -12 1 -3 -7 -20 -13 -37 -12 -31 1 -31 1 -7 9 l25 8 -28 1 c-16 1 -26 5
-22 10 3 5 -3 12 -12 14 -10 3 -3 5 16 6 33 1 34 2 15 16 -11 8 -14 15 -7 15
15 0 13 21 -2 32 -15 11 -47 9 -40 -2 4 -6 11 -8 16 -5 5 4 9 -1 9 -9 0 -23
-28 -19 -35 4 -5 15 -12 19 -25 15 -10 -3 -21 -1 -25 5 -3 5 1 10 9 10 9 0 16
5 16 12 0 6 3 8 7 5 9 -10 33 13 33 32 0 12 -2 13 -9 3 -11 -19 -19 -17 -41
10 -16 19 -19 20 -20 6 0 -9 6 -18 13 -21 8 -3 5 -12 -11 -28 l-23 -24 6 27
c5 21 3 27 -15 33 -13 4 -25 2 -30 -4 -10 -18 -32 -4 -62 38 -28 40 -72 58
-89 37z m-29 -100 c0 -3 -4 -8 -10 -11 -5 -3 -10 -1 -10 4 0 6 5 11 10 11 6 0
10 -2 10 -4z m330 -226 c0 -5 -2 -10 -4 -10 -3 0 -8 5 -11 10 -3 6 -1 10 4 10
6 0 11 -4 11 -10z m15 -91 c-7 -10 -35 -1 -35 11 0 5 9 6 20 3 11 -3 17 -9 15
-14z m-602 -400 c5 -3 2 -9 -7 -12 -12 -5 -16 0 -16 15 0 12 3 17 8 12 4 -5
11 -12 15 -15z m-23 -168 c0 -6 -4 -13 -10 -16 -5 -3 -10 1 -10 9 0 9 5 16 10
16 6 0 10 -4 10 -9z"/>
<path d="M1478 1063 c7 -3 16 -2 19 1 4 3 -2 6 -13 5 -11 0 -14 -3 -6 -6z"/>
<path d="M1551 1024 c0 -11 3 -14 6 -6 3 7 2 16 -1 19 -3 4 -6 -2 -5 -13z"/>
<path d="M142 1010 c0 -14 2 -19 5 -12 2 6 2 18 0 25 -3 6 -5 1 -5 -13z"/>
<path d="M1690 1002 c0 -10 12 -22 30 -29 36 -13 38 -4 7 25 -28 27 -37 28
-37 4z"/>
<path d="M668 993 c6 -2 18 -2 25 0 6 3 1 5 -13 5 -14 0 -19 -2 -12 -5z"/>
<path d="M893 983 c9 -2 23 -2 30 0 6 3 -1 5 -18 5 -16 0 -22 -2 -12 -5z"/>
<path d="M1804 956 c3 -22 10 -44 17 -50 8 -8 9 -2 4 24 -11 53 -27 73 -21 26z"/>
<path d="M510 966 c0 -18 45 -22 70 -6 12 8 9 10 -12 10 -14 0 -33 3 -42 6
-11 4 -16 1 -16 -10z"/>
<path d="M803 972 c-27 -4 -31 -22 -5 -22 21 0 47 16 36 22 -5 2 -19 2 -31 0z"/>
<path d="M1485 950 c3 -5 10 -10 16 -10 5 0 9 5 9 10 0 6 -7 10 -16 10 -8 0
-12 -4 -9 -10z"/>
<path d="M1561 940 c0 -14 4 -32 9 -40 9 -13 10 -13 9 0 -1 8 -5 26 -9 40 l-8
25 -1 -25z"/>
<path d="M185 910 c-3 -6 -3 -20 1 -32 3 -12 6 -56 6 -100 0 -43 4 -78 9 -78
5 0 9 9 9 20 0 25 77 67 93 51 6 -6 24 -11 40 -11 25 0 28 -2 17 -15 -10 -12
-9 -16 3 -21 9 -3 14 -11 11 -18 -3 -8 8 -10 38 -8 44 4 78 28 70 50 -2 6 4
12 13 12 11 0 15 -6 11 -18 -5 -14 0 -18 26 -20 35 -3 98 15 98 28 0 5 -4 12
-10 15 -5 3 -10 11 -10 17 0 7 6 6 15 -2 12 -10 15 -10 15 4 0 9 5 16 10 16
13 0 13 -17 0 -25 -12 -8 6 -35 22 -35 6 0 6 6 -1 14 -8 9 -8 16 -2 20 5 4 8
15 6 26 -4 22 10 28 18 8 3 -7 6 10 6 38 l1 51 -52 2 c-29 0 -89 5 -133 10
-53 6 -84 6 -92 -1 -8 -7 -45 -6 -113 1 -122 13 -117 13 -125 1z m188 -27 c-7
-2 -19 -2 -25 0 -7 3 -2 5 12 5 14 0 19 -2 13 -5z m-113 -68 c0 -19 -4 -35 -8
-35 -4 0 -6 16 -4 35 2 19 6 35 8 35 2 0 4 -16 4 -35z m100 25 c0 -5 -6 -10
-12 -10 -9 0 -8 -4 2 -11 12 -7 8 -9 -15 -7 -43 4 -48 38 -6 38 17 0 31 -4 31
-10z m58 -12 c-2 -6 -10 -14 -16 -16 -7 -2 -10 2 -6 12 7 18 28 22 22 4z m224
-9 c2 -2 1 -3 -1 -2 -2 2 -10 -2 -18 -9 -7 -6 -16 -8 -20 -4 -3 3 -1 6 6 6 7
0 10 4 7 9 -4 5 1 8 9 7 8 -1 16 -4 17 -7z"/>
<path d="M840 910 c-14 -4 -40 -8 -57 -9 l-33 -1 0 -85 c0 -69 3 -85 15 -85
10 0 15 10 15 31 0 20 -4 28 -12 23 -8 -5 -9 -2 -5 10 4 10 7 24 7 32 0 8 5
14 11 14 6 0 9 -7 5 -15 -7 -19 25 -84 41 -85 22 0 43 31 43 65 0 19 5 37 10
40 6 3 10 22 10 41 0 36 -5 38 -50 24z m17 -82 c-3 -7 -5 -2 -5 12 0 14 2 19
5 13 2 -7 2 -19 0 -25z"/>
<path d="M143 759 c0 -47 3 -59 16 -59 24 0 23 107 0 113 -14 4 -17 -4 -16
-54z"/>
<path d="M696 723 c1 -16 3 -30 4 -33 9 -24 -7 -100 -21 -100 -6 0 -7 5 -4 10
3 6 -3 10 -14 10 -15 0 -21 6 -21 23 0 13 -6 31 -13 41 -12 16 -14 15 -37 -9
-14 -15 -24 -28 -22 -31 8 -15 0 -44 -14 -44 -11 0 -14 -6 -10 -17 5 -15 4
-15 -9 1 -8 11 -15 34 -15 52 0 32 -14 45 -39 36 -10 -3 -10 -6 -1 -12 22 -14
1 -29 -48 -35 -26 -3 -64 -8 -84 -11 -30 -5 -38 -2 -38 9 0 9 6 17 12 19 9 3
8 9 -5 22 -16 17 -17 16 -17 -2 0 -10 -3 -21 -6 -24 -10 -10 -44 4 -44 18 0
22 -20 16 -29 -8 -7 -18 -5 -24 11 -28 34 -9 21 -25 -34 -40 l-53 -16 -3 -60
-3 -61 108 23 c59 12 158 36 218 52 61 16 144 37 185 47 80 19 109 33 90 45
-7 4 -12 28 -12 54 0 25 -4 48 -9 52 -5 3 -9 14 -9 25 0 10 -4 19 -8 19 -4 0
-7 -12 -6 -27z"/>
<path d="M4910 726 c0 -2 11 -6 25 -8 14 -3 25 -1 25 3 0 5 -11 9 -25 9 -14 0
-25 -2 -25 -4z"/>
<path d="M486 695 c4 -8 10 -12 15 -9 11 6 2 24 -11 24 -5 0 -7 -7 -4 -15z"/>
<path d="M4503 603 c9 -2 23 -2 30 0 6 3 -1 5 -18 5 -16 0 -22 -2 -12 -5z"/>
<path d="M4555 600 c-3 -5 1 -10 10 -10 9 0 13 5 10 10 -3 6 -8 10 -10 10 -2
0 -7 -4 -10 -10z"/>
<path d="M768 593 c6 -2 18 -2 25 0 6 3 1 5 -13 5 -14 0 -19 -2 -12 -5z"/>
<path d="M4608 593 c6 -2 18 -2 25 0 6 3 1 5 -13 5 -14 0 -19 -2 -12 -5z"/>
<path d="M4963 583 c9 -2 25 -2 35 0 9 3 1 5 -18 5 -19 0 -27 -2 -17 -5z"/>
<path d="M5030 580 c0 -5 7 -7 15 -4 8 4 15 8 15 10 0 2 -7 4 -15 4 -8 0 -15
-4 -15 -10z"/>
<path d="M5108 581 c10 -6 11 -19 6 -47 -6 -32 -8 -35 -15 -19 -5 14 -8 3 -8
-33 -1 -33 -5 -51 -11 -47 -5 3 -10 16 -11 28 -1 20 -2 20 -9 -3 -4 -14 -9
-18 -10 -10 -1 11 -4 9 -10 -5 -14 -33 -12 -35 40 -35 l50 0 0 90 c0 79 -2 90
-17 90 -14 0 -15 -2 -5 -9z m7 -126 c0 -14 -3 -25 -7 -25 -4 0 -8 14 -8 32 0
36 13 30 15 -7z"/>
<path d="M749 556 c-2 -2 -35 -11 -74 -20 -38 -8 -126 -29 -195 -45 -69 -17
-165 -40 -215 -51 -50 -12 -98 -24 -107 -26 -14 -4 -18 -16 -18 -55 0 -46 1
-49 16 -35 20 20 20 20 20 -6 2 -303 4 -318 23 -318 21 0 37 50 19 61 -7 4 -6
13 1 27 15 28 14 32 -6 32 -13 0 -14 3 -5 12 7 7 12 43 12 91 0 65 3 78 15 74
8 -4 17 -2 20 3 4 6 16 10 28 11 12 0 16 3 10 6 -19 7 -16 30 4 37 35 14 43
-20 43 -181 l0 -153 33 0 c17 0 39 4 47 10 9 6 17 5 22 -3 11 -18 21 -1 13 22
-7 25 -27 27 -45 6 -7 -8 -15 -15 -19 -15 -12 0 -10 45 4 85 8 22 14 36 15 31
0 -11 30 14 30 25 0 14 -28 11 -33 -3 -10 -27 -27 46 -26 110 1 56 3 61 9 32
6 -30 8 -31 9 -9 1 28 24 44 44 32 7 -4 6 0 -1 9 -8 9 -20 14 -28 11 -8 -3
-14 1 -14 10 0 9 8 16 18 16 9 -1 26 2 38 6 29 9 34 -21 34 -216 0 -153 1
-159 20 -159 20 0 21 5 20 176 -1 134 1 179 11 185 10 6 10 11 -1 24 -20 24
-1 36 83 57 39 9 75 17 79 18 8 0 11 -51 10 -160 -1 -60 1 -71 10 -55 6 10 12
52 12 92 1 68 8 89 19 61 3 -7 6 -3 6 9 1 12 -3 23 -8 25 -5 2 -12 18 -15 37
-3 25 0 38 12 47 9 7 14 15 11 18 -3 3 -8 4 -10 2z m-49 -36 c-20 -13 -33 -13
-25 0 3 6 14 10 23 10 15 0 15 -2 2 -10z m-55 -10 c-3 -5 -14 -10 -23 -9 -14
0 -13 2 3 9 27 11 27 11 20 0z m-155 -50 c0 -5 -10 -10 -22 -9 -22 0 -22 1 -3
9 11 5 21 9 23 9 1 1 2 -3 2 -9z m-226 -131 c-3 -5 -10 -7 -15 -3 -5 3 -7 10
-3 15 3 5 10 7 15 3 5 -3 7 -10 3 -15z"/>
<path d="M1845 550 c3 -5 8 -10 11 -10 2 0 4 5 4 10 0 6 -5 10 -11 10 -5 0 -7
-4 -4 -10z"/>
<path d="M4561 453 l-1 -103 50 0 50 0 -2 53 -2 52 -3 -47 c-2 -27 -8 -48 -14
-48 -5 0 -8 3 -8 8 4 26 -2 164 -7 159 -4 -3 -7 -41 -8 -84 -1 -66 -4 -78 -20
-81 -16 -4 -17 2 -11 62 5 41 3 71 -3 79 -5 6 -12 21 -15 32 -2 11 -5 -26 -6
-82z"/>
<path d="M4653 505 c0 -27 2 -38 4 -22 2 15 2 37 0 50 -2 12 -4 0 -4 -28z"/>
<path d="M1850 464 c0 -8 5 -12 10 -9 6 3 10 10 10 16 0 5 -4 9 -10 9 -5 0
-10 -7 -10 -16z"/>
<path d="M4531 424 c0 -11 3 -14 6 -6 3 7 2 16 -1 19 -3 4 -6 -2 -5 -13z"/>
<path d="M4783 433 c9 -2 23 -2 30 0 6 3 -1 5 -18 5 -16 0 -22 -2 -12 -5z"/>
<path d="M4843 433 c9 -2 25 -2 35 0 9 3 1 5 -18 5 -19 0 -27 -2 -17 -5z"/>
<path d="M598 396 c-10 -7 -18 -24 -17 -37 l1 -24 7 25 c5 19 14 25 34 25 30
-1 36 9 11 19 -19 7 -15 8 -36 -8z"/>
<path d="M1781 354 c0 -11 3 -14 6 -6 3 7 2 16 -1 19 -3 4 -6 -2 -5 -13z"/>
<path d="M580 247 c0 -74 1 -77 23 -77 33 0 47 19 45 59 l-1 36 -4 -32 c-3
-23 -8 -30 -19 -26 -8 3 -14 0 -14 -6 0 -6 -3 -11 -8 -11 -4 0 -9 28 -10 62
-4 89 -12 85 -12 -5z"/>
<path d="M1792 300 c0 -14 2 -19 5 -12 2 6 2 18 0 25 -3 6 -5 1 -5 -13z"/>
<path d="M4853 220 c-22 -34 -15 -49 22 -56 20 -3 38 -5 40 -2 8 7 -7 48 -18
48 -5 0 -15 7 -21 15 -10 13 -13 13 -23 -5z m31 -26 c9 -3 14 -10 11 -15 -7
-10 -35 0 -35 12 0 11 3 11 24 3z"/>
<path d="M142 210 c0 -14 2 -19 5 -12 2 6 2 18 0 25 -3 6 -5 1 -5 -13z"/>
<path d="M5068 223 c7 -3 16 -2 19 1 4 3 -2 6 -13 5 -11 0 -14 -3 -6 -6z"/>
<path d="M452 193 c-1 -17 -5 -40 -8 -50 -5 -14 -4 -15 5 -7 7 7 11 28 8 50
-3 35 -4 35 -5 7z"/>
<path d="M143 110 c0 -41 2 -58 4 -38 2 21 2 55 0 76 -2 20 -4 3 -4 -38z"/>
<path d="M300 145 c0 -28 -5 -38 -22 -45 -22 -8 -22 -9 5 -9 26 -1 27 1 27 44
0 25 -2 45 -5 45 -3 0 -5 -16 -5 -35z"/>
<path d="M4800 150 c0 -16 4 -30 9 -30 4 0 8 13 7 30 -1 39 -16 39 -16 0z"/>
<path d="M251 134 c-7 -8 -11 -17 -8 -20 7 -8 35 7 41 22 7 19 -15 17 -33 -2z"/>
<path d="M4944 135 c21 -16 32 -13 21 4 -3 6 -14 11 -23 11 -15 -1 -15 -2 2
-15z"/>
<path d="M603 106 c-15 -7 -22 -21 -25 -49 -2 -21 -2 -40 0 -42 2 -1 15 3 30
11 24 12 28 12 40 -3 9 -13 12 -14 13 -2 0 8 2 25 3 39 6 48 -18 65 -61 46z"/>
<path d="M4755 50 c28 -12 47 -12 40 0 -3 6 -18 10 -33 9 -24 0 -25 -1 -7 -9z"/>
<path d="M5008 53 c7 -3 16 -2 19 1 4 3 -2 6 -13 5 -11 0 -14 -3 -6 -6z"/>
<path d="M4663 33 c9 -2 17 -12 18 -21 0 -14 2 -14 6 -2 3 8 11 18 17 22 6 4
-5 7 -24 7 -19 -1 -27 -3 -17 -6z"/>
<path d="M280 15 c0 -8 5 -15 10 -15 6 0 10 7 10 15 0 8 -4 15 -10 15 -5 0
-10 -7 -10 -15z"/>
<path d="M4758 23 c-16 -2 -28 -8 -28 -12 0 -13 63 -12 72 1 6 10 8 10 8 1 0
-10 42 -13 178 -13 206 0 218 15 15 18 -76 2 -156 4 -178 6 -22 2 -52 2 -67
-1z"/>
<path d="M840 10 c0 -5 5 -10 11 -10 5 0 7 5 4 10 -3 6 -8 10 -11 10 -2 0 -4
-4 -4 -10z"/>
</g>
</svg>
